<?xml version="1.0" standalone="no"?>
<!DOCTYPE svg PUBLIC "-//W3C//DTD SVG 1.1//EN" "http://www.w3.org/Graphics/SVG/1.1/DTD/svg11.dtd" >
<svg>
<metadata>
Created by FontForge 20120731 at Mon Jan  2 23:31:07 2017
 By www-data
Copyright (c) 2016 by Sergey Ryadovoy &#38; Jovanny Lemonad. All rights reserved.
</metadata>
<defs>
<font id="PeaceSans" horiz-adv-x="670" >
  <font-face 
    font-family="Peace Sans"
    font-weight="400"
    font-stretch="normal"
    units-per-em="1000"
    panose-1="2 0 5 5 4 0 0 2 0 4"
    ascent="800"
    descent="-200"
    x-height="530"
    cap-height="700"
    bbox="-50 -390 1270 1020"
    underline-thickness="50"
    underline-position="-50"
    stemh="205"
    stemv="240"
    unicode-range="U+000D-F6D4"
  />
<missing-glyph horiz-adv-x="0" 
 />
    <glyph glyph-name=".notdef" horiz-adv-x="0" 
 />
    <glyph glyph-name=".null" horiz-adv-x="0" 
 />
    <glyph glyph-name=".null" horiz-adv-x="0" 
 />
    <glyph glyph-name="CR" unicode="&#xd;" horiz-adv-x="0" 
 />
    <glyph glyph-name="space" unicode=" " horiz-adv-x="200" 
 />
    <glyph glyph-name="exclam" unicode="!" horiz-adv-x="380" 
d="M320 740l-35 -480h-190l-35 480h260zM85 200h210v-200h-210v200z" />
    <glyph glyph-name="quotedbl" unicode="&#x22;" horiz-adv-x="480" 
d="M440 740l-30 -290h-120l-30 290h180zM220 740l-30 -290h-120l-30 290h180z" />
    <glyph glyph-name="numbersign" unicode="#" horiz-adv-x="750" 
d="M330 420l-20 -140h110l20 140h-110zM350 560h110l20 140h160l-20 -140h120l-20 -140h-120l-20 -140h120l-20 -140h-120l-20 -140h-160l20 140h-110l-20 -140h-160l20 140h-120l20 140h120l20 140h-120l20 140h120l20 140h160z" />
    <glyph glyph-name="dollar" unicode="$" horiz-adv-x="625" 
d="M240 -90v80c-160 20 -230 115 -230 115l95 150s70 -65 170 -65c25 0 40 15 40 30c0 50 -270 50 -270 270c0 165 195 215 195 215v85h130v-75c150 -15 230 -110 230 -110l-95 -150s-60 55 -130 55c-25 0 -40 -15 -40 -30c0 -50 270 -50 270 -270
c0 -190 -235 -220 -235 -220v-80h-130z" />
    <glyph glyph-name="percent" unicode="%" horiz-adv-x="790" 
d="M260 0h-200l470 700h200zM180 600c-20 0 -40 -20 -40 -50s20 -50 40 -50s40 20 40 50s-20 50 -40 50zM180 390c-90 0 -160 70 -160 160s70 160 160 160s160 -70 160 -160s-70 -160 -160 -160zM610 200c-20 0 -40 -20 -40 -50s20 -50 40 -50s40 20 40 50s-20 50 -40 50z
M610 -10c-90 0 -160 70 -160 160s70 160 160 160s160 -70 160 -160s-70 -160 -160 -160z" />
    <glyph glyph-name="ampersand" unicode="&#x26;" horiz-adv-x="715" 
d="M715 130l-120 -140l-95 85s-80 -90 -220 -90c-160 0 -250 90 -250 205c0 120 120 190 120 190s-60 55 -60 140c0 110 90 200 225 200c125 0 215 -90 215 -190c0 -80 -95 -160 -95 -160l50 -45l95 115l135 -115l-95 -115zM270 510c0 -30 45 -60 45 -60s45 30 45 60
s-20 50 -45 50s-45 -20 -45 -50zM240 215c0 -30 25 -55 55 -55c45 0 70 30 70 30l-95 80s-30 -25 -30 -55z" />
    <glyph glyph-name="quotesingle" unicode="'" horiz-adv-x="260" 
d="M220 740l-30 -290h-120l-30 290h180z" />
    <glyph glyph-name="parenleft" unicode="(" horiz-adv-x="400" 
d="M270 280c0 -230 130 -420 130 -420h-130s-210 160 -210 420s210 420 210 420h130s-130 -190 -130 -420z" />
    <glyph glyph-name="parenright" unicode=")" horiz-adv-x="400" 
d="M130 280c0 230 -130 420 -130 420h130s210 -160 210 -420s-210 -420 -210 -420h-130s130 190 130 420z" />
    <glyph glyph-name="asterisk" unicode="*" horiz-adv-x="490" 
d="M245 385l-65 -95l-115 85l70 90l-105 30l45 130l105 -35l-5 110h140l-5 -110l105 35l45 -130l-105 -30l70 -90l-115 -85z" />
    <glyph glyph-name="plus" unicode="+" horiz-adv-x="510" 
d="M350 420h130v-190h-130v-140h-190v140h-130v190h130v140h190v-140z" />
    <glyph glyph-name="comma" unicode="," horiz-adv-x="300" 
d="M70 200h210l-120 -300h-160z" />
    <glyph glyph-name="hyphen" unicode="-" horiz-adv-x="490" 
d="M30 230v190h430v-190h-430z" />
    <glyph glyph-name="period" unicode="." horiz-adv-x="290" 
d="M40 200h210v-200h-210v200z" />
    <glyph glyph-name="slash" unicode="/" horiz-adv-x="550" 
d="M210 -80h-190l320 860h190z" />
    <glyph glyph-name="zero" unicode="0" horiz-adv-x="760" 
d="M380 490c-40 0 -80 -40 -80 -140s40 -140 80 -140s80 40 80 140s-40 140 -80 140zM380 -15c-190 0 -340 150 -340 365s150 365 340 365s340 -150 340 -365s-150 -365 -340 -365z" />
    <glyph glyph-name="one" unicode="1" horiz-adv-x="490" 
d="M190 700h240v-700h-260v460l-150 -50v220z" />
    <glyph glyph-name="two" unicode="2" horiz-adv-x="655" 
d="M605 490c0 -170 -210 -270 -210 -270h200v-220h-540v200s280 170 280 260c0 30 -20 50 -55 50c-85 0 -145 -55 -145 -55l-95 150s90 110 280 110c175 0 285 -110 285 -225z" />
    <glyph glyph-name="three" unicode="3" horiz-adv-x="635" 
d="M565 490l-140 -90s170 -30 170 -195c0 -110 -110 -220 -285 -220c-190 0 -280 110 -280 110l95 150s60 -55 145 -55c35 0 55 20 55 45s-20 45 -55 45h-85v130l120 80h-230v210h490v-210z" />
    <glyph glyph-name="four" unicode="4" horiz-adv-x="660" 
d="M580 300h60v-190h-60v-110h-260v110h-290v190l250 400h300v-400zM260 300h60v130z" />
    <glyph glyph-name="five" unicode="5" horiz-adv-x="615" 
d="M345 450c140 0 240 -100 240 -230c0 -125 -110 -235 -285 -235c-190 0 -280 110 -280 110l95 150s60 -55 130 -55c45 0 70 25 70 60s-25 60 -70 60c-40 0 -80 -20 -80 -20l-120 80l50 330h450v-210h-260l-10 -50s30 10 70 10z" />
    <glyph glyph-name="six" unicode="6" 
d="M290 420c0 0 40 50 120 50c140 0 230 -90 230 -230c0 -145 -110 -255 -280 -255c-190 0 -320 130 -320 365c0 215 150 365 330 365c140 0 230 -65 230 -65l-70 -160s-50 30 -110 30c-80 0 -130 -50 -130 -100zM410 240c0 45 -25 70 -50 70s-50 -25 -50 -70s25 -70 50 -70
s50 25 50 70z" />
    <glyph glyph-name="seven" unicode="7" horiz-adv-x="590" 
d="M570 700v-210l-240 -490h-270l235 480h-255v220h530z" />
    <glyph glyph-name="eight" unicode="8" horiz-adv-x="690" 
d="M345 560c-25 0 -45 -20 -45 -55s20 -55 45 -55s45 20 45 55s-20 55 -45 55zM345 280c-30 0 -55 -25 -55 -60s25 -60 55 -60s55 25 55 60s-25 60 -55 60zM345 715c175 0 275 -100 275 -200c0 -110 -100 -145 -100 -145v-5s140 -35 140 -175c0 -105 -100 -205 -315 -205
s-315 100 -315 205c0 140 140 175 140 175v5s-100 35 -100 145c0 100 100 200 275 200z" />
    <glyph glyph-name="nine" unicode="9" 
d="M380 280c0 0 -40 -50 -120 -50c-140 0 -230 90 -230 230c0 145 110 255 280 255c190 0 320 -130 320 -365c0 -215 -150 -365 -330 -365c-140 0 -230 65 -230 65l70 160s50 -30 110 -30c80 0 130 50 130 100zM260 460c0 -45 25 -70 50 -70s50 25 50 70s-25 70 -50 70
s-50 -25 -50 -70z" />
    <glyph glyph-name="colon" unicode=":" horiz-adv-x="290" 
d="M250 330h-210v200h210v-200zM250 0h-210v200h210v-200z" />
    <glyph glyph-name="semicolon" unicode=";" horiz-adv-x="320" 
d="M280 330h-210v200h210v-200zM70 200h210l-120 -300h-160z" />
    <glyph glyph-name="less" unicode="&#x3c;" horiz-adv-x="600" 
d="M40 350l520 180v-170l-310 -95l310 -95v-170l-520 180v170z" />
    <glyph glyph-name="equal" unicode="=" horiz-adv-x="490" 
d="M30 280h430v-170h-430v170zM30 360v170h430v-170h-430z" />
    <glyph glyph-name="greater" unicode="&#x3e;" horiz-adv-x="600" 
d="M40 530l520 -180v-170l-520 -180v170l310 95l-310 95v170z" />
    <glyph glyph-name="question" unicode="?" horiz-adv-x="600" 
d="M570 530c0 -130 -170 -170 -170 -270h-210c0 150 120 170 120 240c0 20 -20 40 -40 40c-50 0 -60 -60 -60 -60l-190 70s40 190 280 190c170 0 270 -100 270 -210zM190 200h210v-200h-210v200z" />
    <glyph glyph-name="at" unicode="@" horiz-adv-x="840" 
d="M700 270c0 150 -120 270 -280 270s-280 -120 -280 -270s120 -270 280 -270c90 0 160 40 160 40l40 -90s-80 -50 -200 -50c-210 0 -380 170 -380 370s170 370 380 370s380 -170 380 -370c0 -110 -80 -190 -170 -190s-120 70 -120 70s-30 -70 -135 -70
c-75 0 -145 70 -145 190s70 190 145 190c55 0 75 -40 75 -40l10 30h140v-190c0 -45 25 -70 50 -70s50 25 50 80zM450 205v130s-10 5 -20 5c-25 0 -45 -20 -45 -70s20 -70 45 -70c10 0 20 5 20 5z" />
    <glyph glyph-name="A" unicode="A" horiz-adv-x="770" 
d="M555 700c1 -4 205 -700 205 -700h-290l-20 100h-130l-20 -100h-290l205 700h340zM350 260h70l-35 180z" />
    <glyph glyph-name="B" unicode="B" horiz-adv-x="730" 
d="M540 370v-5s160 -25 160 -175c0 -110 -90 -200 -340 -200c-160 0 -300 10 -300 10v700s140 10 295 10c225 0 315 -90 315 -195c0 -120 -130 -145 -130 -145zM320 530v-90h35c35 0 55 20 55 45s-20 45 -55 45h-35zM360 170c40 0 60 20 60 50s-20 50 -60 50h-40v-100h40z
" />
    <glyph glyph-name="C" unicode="C" horiz-adv-x="710" 
d="M40 350c0 205 160 365 370 365c190 0 280 -110 280 -110l-120 -190s-60 55 -130 55s-120 -50 -120 -120s50 -120 120 -120s130 55 130 55l120 -190s-90 -110 -280 -110c-210 0 -370 160 -370 365z" />
    <glyph glyph-name="D" unicode="D" horiz-adv-x="800" 
d="M320 210h40c75 0 120 45 120 140s-45 140 -120 140h-40v-280zM760 350c0 -215 -134 -360 -400 -360c-160 0 -300 10 -300 10v700s140 10 300 10c266 0 400 -145 400 -360z" />
    <glyph glyph-name="E" unicode="E" horiz-adv-x="650" 
d="M320 250v-50h300v-200h-560v700h540v-200h-280v-50h260v-200h-260z" />
    <glyph glyph-name="F" unicode="F" horiz-adv-x="600" 
d="M60 700h520v-220h-260v-80h210v-200h-210v-200h-260v700z" />
    <glyph glyph-name="G" unicode="G" horiz-adv-x="740" 
d="M440 230h20v120h240v-245s-90 -120 -290 -120c-210 0 -370 160 -370 365s160 365 370 365c190 0 280 -110 280 -110l-120 -190s-60 55 -130 55s-120 -50 -120 -120s50 -120 120 -120z" />
    <glyph glyph-name="H" unicode="H" horiz-adv-x="800" 
d="M320 700v-240h160v240h260v-700h-260v240h-160v-240h-260v700h260z" />
    <glyph glyph-name="I" unicode="I" horiz-adv-x="380" 
d="M320 700v-700h-260v700h260z" />
    <glyph glyph-name="J" unicode="J" horiz-adv-x="540" 
d="M220 310v390h260v-390c0 -210 -130 -340 -280 -340c-130 0 -200 60 -200 60l70 210s30 -20 70 -20c45 0 80 35 80 90z" />
    <glyph glyph-name="K" unicode="K" horiz-adv-x="750" 
d="M740 700l-190 -350l210 -350h-300l-140 280v-280h-260v700h260v-280l120 280h300z" />
    <glyph glyph-name="L" unicode="L" horiz-adv-x="610" 
d="M320 700v-470h270v-230h-530v700h260z" />
    <glyph glyph-name="M" unicode="M" horiz-adv-x="1090" 
d="M650 0h-210l-120 390v-390h-260v700h370l115 -380l115 380h370v-700h-260v390z" />
    <glyph glyph-name="N" unicode="N" horiz-adv-x="840" 
d="M490 0l-170 310v-310h-260v700h290l170 -310v310h260v-700h-290z" />
    <glyph glyph-name="O" unicode="O" horiz-adv-x="860" 
d="M540 350c0 70 -50 120 -110 120s-110 -50 -110 -120s50 -120 110 -120s110 50 110 120zM820 350c0 -205 -160 -365 -390 -365s-390 160 -390 365s160 365 390 365s390 -160 390 -365z" />
    <glyph glyph-name="P" unicode="P" horiz-adv-x="710" 
d="M360 710c220 0 320 -100 320 -245s-100 -245 -270 -245c-40 0 -90 5 -90 5v-225h-260v700s140 10 300 10zM320 410h40c35 0 60 25 60 55s-25 55 -60 55h-40v-110z" />
    <glyph glyph-name="Q" unicode="Q" horiz-adv-x="860" 
d="M820 350c0 -235 -195 -320 -195 -320s25 -60 95 -60c30 0 60 10 60 10v-180s-40 -10 -90 -10c-210 0 -305 200 -305 200c-195 10 -345 160 -345 360c0 205 160 365 390 365s390 -160 390 -365zM540 350c0 70 -50 120 -110 120s-110 -50 -110 -120s50 -120 110 -120
s110 50 110 120z" />
    <glyph glyph-name="R" unicode="R" horiz-adv-x="730" 
d="M750 0h-300l-120 230h-10v-230h-260v700s140 10 290 10c220 0 320 -100 320 -245s-90 -195 -90 -195zM320 410h30c35 0 60 25 60 55s-25 55 -60 55h-30v-110z" />
    <glyph glyph-name="S" unicode="S" horiz-adv-x="625" 
d="M275 190c25 0 40 15 40 30c0 50 -270 50 -270 270c0 115 110 225 285 225c180 0 270 -110 270 -110l-95 -150s-60 55 -130 55c-25 0 -40 -15 -40 -30c0 -50 270 -50 270 -270c0 -115 -110 -225 -285 -225c-220 0 -310 120 -310 120l95 150s70 -65 170 -65z" />
    <glyph glyph-name="T" unicode="T" horiz-adv-x="680" 
d="M20 700h640v-230h-190v-470h-260v470h-190v230z" />
    <glyph glyph-name="U" unicode="U" horiz-adv-x="800" 
d="M400 235c45 0 80 35 80 90v375h260v-375c0 -200 -140 -340 -340 -340s-340 140 -340 340v375h260v-375c0 -55 35 -90 80 -90z" />
    <glyph glyph-name="V" unicode="V" horiz-adv-x="750" 
d="M10 700h290l75 -410l75 410h290l-195 -700h-340z" />
    <glyph glyph-name="W" unicode="W" horiz-adv-x="1050" 
d="M640 700l75 -385l55 385h270l-150 -700h-290l-75 355l-75 -355h-290l-150 700h270l55 -385l75 385h230z" />
    <glyph glyph-name="X" unicode="X" horiz-adv-x="740" 
d="M190 350l-190 350h300l70 -190l70 190h300l-190 -350l200 -350h-300l-80 210l-80 -210h-300z" />
    <glyph glyph-name="Y" unicode="Y" horiz-adv-x="700" 
d="M280 700l70 -200l70 200h300l-240 -430v-270h-260v270l-240 430h300z" />
    <glyph glyph-name="Z" unicode="Z" horiz-adv-x="690" 
d="M630 480l-250 -260h260v-220h-590v4v216l250 260h-230v220h560v-220z" />
    <glyph glyph-name="bracketleft" unicode="[" horiz-adv-x="410" 
d="M270 20h110v-160h-300v840h300v-160h-110v-520z" />
    <glyph glyph-name="backslash" unicode="\" horiz-adv-x="550" 
d="M530 -80h-190l-320 860h190z" />
    <glyph glyph-name="bracketright" unicode="]" horiz-adv-x="410" 
d="M30 20h110v520h-110v160h300v-840h-300v160z" />
    <glyph glyph-name="asciicircum" unicode="^" horiz-adv-x="540" 
d="M0 350l190 350h160l190 -350h-190l-80 150l-80 -150h-190z" />
    <glyph glyph-name="underscore" unicode="_" horiz-adv-x="430" 
d="M-20 -270v150h470v-150h-470z" />
    <glyph glyph-name="grave" unicode="`" horiz-adv-x="360" 
d="M240 700l90 -210h-160l-140 210h210z" />
    <glyph glyph-name="a" unicode="a" horiz-adv-x="620" 
d="M285 545c170 0 295 -125 295 -280v-265h-230l-20 60s-40 -75 -130 -75c-110 0 -180 70 -180 165s70 165 240 165h80s-10 55 -90 55c-50 0 -90 -40 -90 -40l-85 135s75 80 210 80zM290 145c25 0 50 25 50 85c-55 0 -80 -25 -80 -55c0 -15 15 -30 30 -30z" />
    <glyph glyph-name="b" unicode="b" 
d="M640 265c0 -180 -100 -280 -210 -280c-100 0 -140 75 -140 75l-20 -60h-220v740h240v-270s40 75 140 75c110 0 210 -100 210 -280zM390 265c0 50 -25 75 -55 75s-55 -25 -55 -75s25 -75 55 -75s55 25 55 75z" />
    <glyph glyph-name="c" unicode="c" horiz-adv-x="560" 
d="M280 265c0 -45 30 -75 80 -75s90 40 90 40l100 -160s-80 -85 -225 -85c-170 0 -295 125 -295 280s125 280 295 280c145 0 225 -85 225 -85l-100 -160s-40 40 -90 40s-80 -30 -80 -75z" />
    <glyph glyph-name="d" unicode="d" 
d="M30 265c0 180 100 280 210 280c100 0 140 -75 140 -75v270h240v-740h-220l-20 60s-40 -75 -140 -75c-110 0 -210 100 -210 280zM280 265c0 -50 25 -75 55 -75s55 25 55 75s-25 75 -55 75s-55 -25 -55 -75z" />
    <glyph glyph-name="e" unicode="e" horiz-adv-x="610" 
d="M310 545c155 0 280 -125 280 -280v-50h-320s10 -55 90 -55c50 0 90 40 90 40l85 -135s-75 -80 -210 -80c-170 0 -295 125 -295 280s125 280 280 280zM265 310h90c0 40 -20 60 -45 60s-45 -20 -45 -60z" />
    <glyph glyph-name="f" unicode="f" horiz-adv-x="450" 
d="M20 500h70v15c0 175 90 265 240 265c50 0 90 -10 90 -10v-200s-20 5 -40 5c-30 0 -50 -20 -50 -60v-15h90v-200h-90v-300h-240v300h-70v200z" />
    <glyph glyph-name="g" unicode="g" 
d="M380 20v60s-40 -75 -140 -75c-110 0 -210 100 -210 270s100 270 210 270c100 0 140 -75 140 -75l20 60h220v-510c0 -165 -135 -300 -305 -300c-145 0 -225 85 -225 85l100 160s40 -40 90 -40c60 0 100 40 100 95zM280 275c0 -40 25 -65 55 -65s55 25 55 65s-25 65 -55 65
s-55 -25 -55 -65z" />
    <glyph glyph-name="h" unicode="h" horiz-adv-x="650" 
d="M430 545c100 0 180 -80 180 -265v-280h-240v280c0 40 -20 60 -40 60s-40 -20 -40 -60v-280h-240v740h240v-280s50 85 140 85z" />
    <glyph glyph-name="i" unicode="i" horiz-adv-x="340" 
d="M50 530h240v-530h-240v530zM50 590v190h240v-190h-240z" />
    <glyph glyph-name="j" unicode="j" horiz-adv-x="340" 
d="M50 590v190h240v-190h-240zM50 -25v555h240v-555c0 -175 -90 -265 -240 -265c-50 0 -90 10 -90 10v200s20 -5 40 -5c30 0 50 20 50 60z" />
    <glyph glyph-name="k" unicode="k" horiz-adv-x="645" 
d="M635 530l-140 -260l160 -270h-265l-100 210v-210h-240v740h240v-410l85 200h260z" />
    <glyph glyph-name="l" unicode="l" horiz-adv-x="340" 
d="M50 0v740h240v-740h-240z" />
    <glyph glyph-name="m" unicode="m" horiz-adv-x="970" 
d="M750 545c100 0 180 -80 180 -265v-280h-240v280c0 40 -20 60 -40 60s-40 -20 -40 -60v-280h-240v280c0 40 -20 60 -40 60s-40 -20 -40 -60v-280h-240v530h230l20 -60s40 75 140 75s150 -95 150 -95s60 95 160 95z" />
    <glyph glyph-name="n" unicode="n" horiz-adv-x="650" 
d="M430 545c100 0 180 -80 180 -265v-280h-240v280c0 40 -20 60 -40 60s-40 -20 -40 -60v-280h-240v530h230l20 -60s40 75 130 75z" />
    <glyph glyph-name="o" unicode="o" 
d="M30 265c0 155 125 280 305 280s305 -125 305 -280s-125 -280 -305 -280s-305 125 -305 280zM400 265c0 45 -30 75 -65 75s-65 -30 -65 -75s30 -75 65 -75s65 30 65 75z" />
    <glyph glyph-name="p" unicode="p" 
d="M640 265c0 -180 -100 -280 -210 -280c-100 0 -140 75 -140 75v-310h-240v780h220l20 -60s40 75 140 75c110 0 210 -100 210 -280zM390 265c0 50 -25 75 -55 75s-55 -25 -55 -75s25 -75 55 -75s55 25 55 75z" />
    <glyph glyph-name="q" unicode="q" 
d="M30 265c0 180 100 280 210 280c100 0 140 -75 140 -75l20 60h220v-780h-240v310s-40 -75 -140 -75c-110 0 -210 100 -210 280zM280 265c0 -50 25 -75 55 -75s55 25 55 75s-25 75 -55 75s-55 -25 -55 -75z" />
    <glyph glyph-name="r" unicode="r" horiz-adv-x="480" 
d="M300 470c0 0 40 75 120 75c40 0 70 -15 70 -15l-40 -220s-40 20 -70 20c-50 0 -90 -40 -90 -110v-220h-240v530h230z" />
    <glyph glyph-name="s" unicode="s" horiz-adv-x="515" 
d="M495 160c0 -95 -80 -175 -235 -175c-165 0 -250 95 -250 95l75 120s50 -50 125 -50c15 0 25 10 25 20c0 30 -195 40 -195 200c0 95 80 175 235 175c135 0 220 -85 220 -85l-75 -120s-40 40 -95 40c-15 0 -25 -10 -25 -20c0 -30 195 -40 195 -200z" />
    <glyph glyph-name="t" unicode="t" horiz-adv-x="470" 
d="M90 330h-70v200h70v170h240v-170h90v-200h-90v-85c0 -40 20 -60 50 -60c20 0 40 5 40 5v-200s-40 -10 -90 -10c-150 0 -240 90 -240 265v85z" />
    <glyph glyph-name="u" unicode="u" horiz-adv-x="660" 
d="M230 -15c-100 0 -180 80 -180 265v280h240v-280c0 -40 20 -60 40 -60s40 20 40 60v280h240v-530h-230l-20 60s-40 -75 -130 -75z" />
    <glyph glyph-name="v" unicode="v" horiz-adv-x="590" 
d="M435 0h-280l-155 530h250l45 -280l45 280h250z" />
    <glyph glyph-name="w" unicode="w" horiz-adv-x="840" 
d="M515 530l45 -260l30 260h250l-120 -530h-240l-60 270l-60 -270h-240l-120 530h250l30 -260l45 260h190z" />
    <glyph glyph-name="x" unicode="x" horiz-adv-x="600" 
d="M595 530l-135 -265l150 -265h-270l-40 130l-40 -130h-270l150 265l-135 265h255l40 -130l40 130h255z" />
    <glyph glyph-name="y" unicode="y" horiz-adv-x="590" 
d="M160 -40l15 40l-175 530h250l45 -280l45 280h250l-190 -570c-60 -180 -130 -250 -255 -250c-70 0 -130 40 -130 40l55 175s15 -10 35 -10c25 0 46 20 55 45z" />
    <glyph glyph-name="z" unicode="z" horiz-adv-x="560" 
d="M510 340l-180 -150h190v-190h-480v190l180 150h-170v190h460v-190z" />
    <glyph glyph-name="braceleft" unicode="{" horiz-adv-x="410" 
d="M40 221v118c40 1 60 21 60 61v150c0 90 60 150 150 150h120v-160h-50c-20 0 -30 -10 -30 -30v-110c0 -100 -80 -120 -80 -120s80 -20 80 -120v-110c0 -20 10 -30 30 -30h50v-160h-120c-90 0 -150 60 -150 150v150c0 40 -20 60 -60 61z" />
    <glyph glyph-name="bar" unicode="|" horiz-adv-x="330" 
d="M80 -50v800h170v-800h-170z" />
    <glyph glyph-name="braceright" unicode="}" horiz-adv-x="410" 
d="M370 339v-118c-40 -1 -60 -21 -60 -61v-150c0 -90 -60 -150 -150 -150h-120v160h50c20 0 30 10 30 30v110c0 100 80 120 80 120s-80 20 -80 120v110c0 20 -10 30 -30 30h-50v160h120c90 0 150 -60 150 -150v-150c0 -40 20 -60 60 -61z" />
    <glyph glyph-name="asciitilde" unicode="~" horiz-adv-x="500" 
d="M310 390c30 0 50 20 50 50h110v-100c0 -90 -50 -140 -130 -140c-70 0 -110 60 -150 60c-30 0 -50 -20 -50 -50h-110v100c0 90 50 140 130 140c70 0 110 -60 150 -60z" />
    <glyph glyph-name="nbspace" unicode="&#xa0;" horiz-adv-x="0" 
 />
    <glyph glyph-name="exclamdown" unicode="&#xa1;" horiz-adv-x="380" 
d="M60 -250l35 520h190l35 -520h-260zM295 330h-210v200h210v-200z" />
    <glyph glyph-name="cent" unicode="&#xa2;" horiz-adv-x="560" 
d="M240 620v80h140v-75c110 -15 170 -80 170 -80l-100 -160s-40 40 -90 40s-80 -30 -80 -75s30 -75 80 -75s90 40 90 40l100 -160s-60 -65 -170 -80v-75h-140v80s-210 55 -210 270s210 270 210 270z" />
    <glyph glyph-name="sterling" unicode="&#xa3;" horiz-adv-x="660" 
d="M480 270h-130c0 -50 -50 -70 -50 -70h310v-200h-560v200s70 20 70 70h-50v140h50v50c0 155 100 255 255 255c145 0 235 -90 235 -255h-175c0 30 -20 50 -40 50s-40 -20 -40 -50v-50h125v-140z" />
    <glyph glyph-name="currency" unicode="&#xa4;" horiz-adv-x="750" 
d="M40 120v130h70v40h-70v129h70v281s140 10 300 10c220 0 310 -90 310 -215c0 -115 -90 -205 -260 -205h-90v-40h210v-130h-210v-120h-260v120h-70zM370 430h40c30 0 50 20 50 45s-20 45 -50 45h-40v-90z" />
    <glyph glyph-name="yen" unicode="&#xa5;" horiz-adv-x="720" 
d="M190 350l-200 350h300l70 -200l70 200h300l-200 -350h90v-110h-130v-40h130v-110h-130v-90h-260v90h-130v110h130v40h-130v110h90z" />
    <glyph glyph-name="brokenbar" unicode="&#xa6;" horiz-adv-x="330" 
d="M80 -50v320h170v-320h-170zM80 430v320h170v-320h-170z" />
    <glyph glyph-name="section" unicode="&#xa7;" horiz-adv-x="545" 
d="M430 240c0 0 50 -30 50 -105c0 -95 -80 -175 -215 -175s-220 85 -220 85l75 120s40 -40 95 -40c15 0 25 10 25 20c0 55 -200 45 -200 195c0 80 75 120 75 120s-50 30 -50 105c0 95 80 175 215 175s220 -85 220 -85l-75 -120s-40 40 -95 40c-15 0 -25 -10 -25 -20
c0 -55 200 -45 200 -195c0 -80 -75 -120 -75 -120zM310 310c0 0 15 10 15 30c0 30 -90 50 -90 50s-15 -10 -15 -30c0 -30 90 -50 90 -50z" />
    <glyph glyph-name="dieresis" unicode="&#xa8;" horiz-adv-x="460" 
d="M430 610c0 -50 -40 -90 -90 -90s-90 40 -90 90s40 90 90 90s90 -40 90 -90zM210 610c0 -50 -40 -90 -90 -90s-90 40 -90 90s40 90 90 90s90 -40 90 -90z" />
    <glyph glyph-name="copyright" unicode="&#xa9;" horiz-adv-x="840" 
d="M40 350c0 200 170 370 380 370s380 -170 380 -370s-170 -370 -380 -370s-380 170 -380 370zM700 350c0 150 -120 270 -280 270s-280 -120 -280 -270s120 -270 280 -270s280 120 280 270zM250 350c0 110 80 190 190 190c90 0 150 -55 150 -55l-60 -100s-30 25 -65 25
c-40 0 -65 -25 -65 -60s25 -60 65 -60c35 0 65 25 65 25l60 -100s-60 -55 -150 -55c-110 0 -190 80 -190 190z" />
    <glyph glyph-name="ordfeminine" unicode="&#xaa;" horiz-adv-x="470" 
d="M120 570l-40 90s50 50 150 50c110 0 180 -70 180 -170v-200h-140l-10 50s-30 -60 -110 -60c-60 0 -110 50 -110 110s50 110 150 109l60 1s-10 40 -60 40c-40 0 -70 -20 -70 -20zM220 440c15 0 30 15 30 50c-35 0 -50 -15 -50 -30c0 -10 10 -20 20 -20zM40 140v130h370
v-130h-370z" />
    <glyph glyph-name="guillemotleft" unicode="&#xab;" horiz-adv-x="540" 
d="M140 40l-110 230l110 230h150l-110 -230l110 -230h-150zM360 40l-110 230l110 230h150l-110 -230l110 -230h-150z" />
    <glyph glyph-name="logicalnot" unicode="&#xac;" horiz-adv-x="490" 
d="M460 440v-230h-130v110h-300v120h430z" />
    <glyph glyph-name="uni00AD" unicode="&#xad;" horiz-adv-x="490" 
d="M30 230v190h430v-190h-430z" />
    <glyph glyph-name="registered" unicode="&#xae;" horiz-adv-x="840" 
d="M620 170h-170l-35 110h-5v-110h-150v360s80 10 160 10c120 0 180 -60 180 -130c0 -60 -50 -90 -50 -90zM410 440v-60h10c14 0 30 15 30 30s-15 30 -30 30h-10zM40 350c0 200 170 370 380 370s380 -170 380 -370s-170 -370 -380 -370s-380 170 -380 370zM700 350
c0 150 -120 270 -280 270s-280 -120 -280 -270s120 -270 280 -270s280 120 280 270z" />
    <glyph glyph-name="macron" unicode="&#xaf;" horiz-adv-x="370" 
d="M30 560v140h310v-140h-310z" />
    <glyph glyph-name="degree" unicode="&#xb0;" horiz-adv-x="520" 
d="M200 500c0 -40 30 -70 60 -70s60 30 60 70s-30 70 -60 70s-60 -30 -60 -70zM40 500c0 120 90 210 220 210s220 -90 220 -210s-90 -210 -220 -210s-220 90 -220 210z" />
    <glyph glyph-name="plusminus" unicode="&#xb1;" horiz-adv-x="510" 
d="M40 30v190h120v90h-130v190h130v140h190v-140h130v-190h-130v-90h120v-190h-430z" />
    <glyph glyph-name="twosuperior" unicode="&#xb2;" horiz-adv-x="470" 
d="M280 340h150v-140h-390v130s210 120 210 190c0 25 -15 40 -40 40c-60 0 -110 -40 -110 -40l-80 120s70 70 200 70c140 0 210 -70 210 -160c0 -120 -150 -210 -150 -210z" />
    <glyph glyph-name="threesuperior" unicode="&#xb3;" horiz-adv-x="470" 
d="M430 350c0 -90 -70 -160 -210 -160c-130 0 -200 70 -200 70l80 120s50 -40 110 -40c25 0 40 15 40 30s-15 30 -40 30h-80v90l100 70h-180v140h370v-140l-100 -70s110 -30 110 -140z" />
    <glyph glyph-name="acute" unicode="&#xb4;" horiz-adv-x="360" 
d="M30 490l90 210h210l-140 -210h-160z" />
    <glyph glyph-name="mu" unicode="&#xb5;" horiz-adv-x="690" 
d="M350 530h240v-280c0 -25 15 -40 40 -40c10 0 20 5 20 5l40 -195s-50 -30 -130 -30c-140 0 -170 90 -170 90s-20 -40 -60 -40c-20 0 -40 10 -40 10v-300h-240v780h240v-260c0 -25 15 -40 30 -40s30 15 30 40v260z" />
    <glyph glyph-name="paragraph" unicode="&#xb6;" horiz-adv-x="770" 
d="M30 510c0 100 90 190 180 190h530v-220h-80v-730h-200v730h-50v-730h-200v570c-90 0 -180 90 -180 190z" />
    <glyph glyph-name="periodcentered" unicode="&#xb7;" horiz-adv-x="210" 
d="M0 450h210v-200h-210v200z" />
    <glyph glyph-name="cedilla" unicode="&#xb8;" horiz-adv-x="290" 
d="M165 0l-25 -60c65 0 120 -55 120 -120c0 -75 -55 -130 -140 -130h-90v100h70c15 0 30 15 30 30s-15 30 -30 30h-60l60 150h65z" />
    <glyph glyph-name="onesuperior" unicode="&#xb9;" horiz-adv-x="360" 
d="M140 700h170v-500h-180v330l-100 -45v165z" />
    <glyph glyph-name="ordmasculine" unicode="&#xba;" horiz-adv-x="540" 
d="M40 450c0 160 100 260 230 260s230 -100 230 -260s-100 -260 -230 -260s-230 100 -230 260zM320 450c0 85 -25 110 -50 110s-50 -25 -50 -110s25 -110 50 -110s50 25 50 110z" />
    <glyph glyph-name="guillemotright" unicode="&#xbb;" horiz-adv-x="540" 
d="M510 270l-110 -230h-150l110 230l-110 230h150zM290 270l-110 -230h-150l110 230l-110 230h150z" />
    <glyph glyph-name="onequarter" unicode="&#xbc;" horiz-adv-x="1080" 
d="M140 700h170v-500h-180v330l-100 -45v165zM640 700l-200 -700h-110l200 700h110zM1060 220v-140h-50v-80h-180v80h-240v140l170 280h250v-280h50zM830 220v130l-70 -130h70z" />
    <glyph glyph-name="onehalf" unicode="&#xbd;" horiz-adv-x="1060" 
d="M140 700h170v-500h-180v330l-100 -45v165zM640 700l-200 -700h-110l200 700h110zM870 140h150v-140h-390v130s210 120 210 190c0 25 -15 40 -40 40c-60 0 -110 -40 -110 -40l-80 120s70 70 200 70c140 0 210 -70 210 -160c0 -120 -150 -210 -150 -210z" />
    <glyph glyph-name="threequarters" unicode="&#xbe;" horiz-adv-x="1160" 
d="M430 350c0 -90 -70 -160 -210 -160c-130 0 -200 70 -200 70l80 120s50 -40 110 -40c25 0 40 15 40 30s-15 30 -40 30h-80v90l100 70h-180v140h370v-140l-100 -70s110 -30 110 -140zM720 700l-200 -700h-110l200 700h110zM1140 220v-140h-50v-80h-180v80h-240v140l170 280
h250v-280h50zM910 220v130l-70 -130h70z" />
    <glyph glyph-name="questiondown" unicode="&#xbf;" horiz-adv-x="540" 
d="M20 -40c0 150 170 190 170 310h210c0 -170 -120 -190 -120 -280c0 -20 20 -40 40 -40c50 0 60 60 60 60l190 -70s-40 -190 -280 -190c-170 0 -270 100 -270 210zM400 330h-210v200h210v-200z" />
    <glyph glyph-name="Agrave" unicode="&#xc0;" horiz-adv-x="770" 
d="M555 700c1 -4 205 -700 205 -700h-290l-20 100h-130l-20 -100h-290l205 700h340zM350 260h70l-35 180zM380 980l90 -210h-160l-140 210h210z" />
    <glyph glyph-name="Aacute" unicode="&#xc1;" horiz-adv-x="770" 
d="M555 700c1 -4 205 -700 205 -700h-290l-20 100h-130l-20 -100h-290l205 700h340zM350 260h70l-35 180zM310 770l90 210h210l-140 -210h-160z" />
    <glyph glyph-name="Acircumflex" unicode="&#xc2;" horiz-adv-x="770" 
d="M555 700c1 -4 205 -700 205 -700h-290l-20 100h-130l-20 -100h-290l205 700h340zM350 260h70l-35 180zM465 940l120 -170h-150l-50 80l-50 -80h-150l120 170h160z" />
    <glyph glyph-name="Atilde" unicode="&#xc3;" horiz-adv-x="770" 
d="M555 700c1 -4 205 -700 205 -700h-290l-20 100h-130l-20 -100h-290l205 700h340zM350 260h70l-35 180zM455 770c-60 0 -85 50 -110 50c-15 0 -30 -15 -30 -40h-90v70c0 60 40 100 90 100c60 0 85 -50 110 -50c15 0 30 15 30 40h90v-70c0 -60 -40 -100 -90 -100z" />
    <glyph glyph-name="Adieresis" unicode="&#xc4;" horiz-adv-x="770" 
d="M555 700c1 -4 205 -700 205 -700h-290l-20 100h-130l-20 -100h-290l205 700h340zM350 260h70l-35 180zM585 860c0 -50 -40 -90 -90 -90s-90 40 -90 90s40 90 90 90s90 -40 90 -90zM365 860c0 -50 -40 -90 -90 -90s-90 40 -90 90s40 90 90 90s90 -40 90 -90z" />
    <glyph glyph-name="Aring" unicode="&#xc5;" horiz-adv-x="770" 
d="M555 700c1 -4 205 -700 205 -700h-290l-20 100h-130l-20 -100h-290l205 700h340zM350 260h70l-35 180zM255 880c0 75 55 130 130 130s130 -55 130 -130s-55 -130 -130 -130s-130 55 -130 130zM345 880c0 -20 20 -40 40 -40s40 20 40 40s-20 40 -40 40s-40 -20 -40 -40z
" />
    <glyph glyph-name="AE" unicode="&#xc6;" horiz-adv-x="1070" 
d="M740 200h300v-200h-560v110h-190l-50 -110h-280l360 700h700v-200h-280v-50h260v-200h-260v-50zM380 300h100v200h-10z" />
    <glyph glyph-name="Ccedilla" unicode="&#xc7;" horiz-adv-x="710" 
d="M40 350c0 205 160 365 370 365c190 0 280 -110 280 -110l-120 -190s-60 55 -130 55s-120 -50 -120 -120s50 -120 120 -120s130 55 130 55l120 -190s-90 -105 -270 -110l-20 -45c65 0 120 -55 120 -120c0 -75 -55 -130 -140 -130h-90v100h70c15 0 30 15 30 30
s-15 30 -30 30h-60l55 140c-185 30 -315 170 -315 360z" />
    <glyph glyph-name="Egrave" unicode="&#xc8;" horiz-adv-x="650" 
d="M320 250v-50h300v-200h-560v700h540v-200h-280v-50h260v-200h-260zM330 980l90 -210h-160l-140 210h210z" />
    <glyph glyph-name="Eacute" unicode="&#xc9;" horiz-adv-x="650" 
d="M320 250v-50h300v-200h-560v700h540v-200h-280v-50h260v-200h-260zM250 770l90 210h210l-140 -210h-160z" />
    <glyph glyph-name="Ecircumflex" unicode="&#xca;" horiz-adv-x="650" 
d="M320 250v-50h300v-200h-560v700h540v-200h-280v-50h260v-200h-260zM410 940l120 -170h-150l-50 80l-50 -80h-150l120 170h160z" />
    <glyph glyph-name="Edieresis" unicode="&#xcb;" horiz-adv-x="650" 
d="M320 250v-50h300v-200h-560v700h540v-200h-280v-50h260v-200h-260zM530 860c0 -50 -40 -90 -90 -90s-90 40 -90 90s40 90 90 90s90 -40 90 -90zM310 860c0 -50 -40 -90 -90 -90s-90 40 -90 90s40 90 90 90s90 -40 90 -90z" />
    <glyph glyph-name="Igrave" unicode="&#xcc;" horiz-adv-x="380" 
d="M320 700v-700h-260v700h260zM180 980l90 -210h-160l-140 210h210z" />
    <glyph glyph-name="Iacute" unicode="&#xcd;" horiz-adv-x="380" 
d="M320 700v-700h-260v700h260zM110 770l90 210h210l-140 -210h-160z" />
    <glyph glyph-name="Icircumflex" unicode="&#xce;" horiz-adv-x="380" 
d="M320 700v-700h-260v700h260zM270 940l120 -170h-150l-50 80l-50 -80h-150l120 170h160z" />
    <glyph glyph-name="Idieresis" unicode="&#xcf;" horiz-adv-x="380" 
d="M320 700v-700h-260v700h260zM390 860c0 -50 -40 -90 -90 -90s-90 40 -90 90s40 90 90 90s90 -40 90 -90zM170 860c0 -50 -40 -90 -90 -90s-90 40 -90 90s40 90 90 90s90 -40 90 -90z" />
    <glyph glyph-name="Eth" unicode="&#xd0;" horiz-adv-x="830" 
d="M20 280v140h70v280s140 10 300 10c266 0 400 -145 400 -360s-134 -360 -400 -360c-160 0 -300 10 -300 10v280h-70zM350 210h40c75 0 120 45 120 140s-45 140 -120 140h-40v-70h90v-140h-90v-70z" />
    <glyph glyph-name="Ntilde" unicode="&#xd1;" horiz-adv-x="840" 
d="M490 0l-170 310v-310h-260v700h290l170 -310v310h260v-700h-290zM489 760c-60 0 -85 50 -110 50c-15 0 -30 -15 -30 -40h-90v70c0 60 40 100 90 100c60 0 85 -50 110 -50c15 0 30 15 30 40h90v-70c0 -60 -40 -100 -90 -100z" />
    <glyph glyph-name="Ograve" unicode="&#xd2;" horiz-adv-x="860" 
d="M540 350c0 70 -50 120 -110 120s-110 -50 -110 -120s50 -120 110 -120s110 50 110 120zM820 350c0 -205 -160 -365 -390 -365s-390 160 -390 365s160 365 390 365s390 -160 390 -365zM420 980l90 -210h-160l-140 210h210z" />
    <glyph glyph-name="Oacute" unicode="&#xd3;" horiz-adv-x="860" 
d="M540 350c0 70 -50 120 -110 120s-110 -50 -110 -120s50 -120 110 -120s110 50 110 120zM820 350c0 -205 -160 -365 -390 -365s-390 160 -390 365s160 365 390 365s390 -160 390 -365zM360 770l90 210h210l-140 -210h-160z" />
    <glyph glyph-name="Ocircumflex" unicode="&#xd4;" horiz-adv-x="860" 
d="M540 350c0 70 -50 120 -110 120s-110 -50 -110 -120s50 -120 110 -120s110 50 110 120zM820 350c0 -205 -160 -365 -390 -365s-390 160 -390 365s160 365 390 365s390 -160 390 -365zM510 940l120 -170h-150l-50 80l-50 -80h-150l120 170h160z" />
    <glyph glyph-name="Otilde" unicode="&#xd5;" horiz-adv-x="860" 
d="M540 350c0 70 -50 120 -110 120s-110 -50 -110 -120s50 -120 110 -120s110 50 110 120zM820 350c0 -205 -160 -365 -390 -365s-390 160 -390 365s160 365 390 365s390 -160 390 -365zM500 770c-60 0 -85 50 -110 50c-15 0 -30 -15 -30 -40h-90v70c0 60 40 100 90 100
c60 0 85 -50 110 -50c15 0 30 15 30 40h90v-70c0 -60 -40 -100 -90 -100z" />
    <glyph glyph-name="Odieresis" unicode="&#xd6;" horiz-adv-x="860" 
d="M540 350c0 70 -50 120 -110 120s-110 -50 -110 -120s50 -120 110 -120s110 50 110 120zM820 350c0 -205 -160 -365 -390 -365s-390 160 -390 365s160 365 390 365s390 -160 390 -365zM630 860c0 -50 -40 -90 -90 -90s-90 40 -90 90s40 90 90 90s90 -40 90 -90zM410 860
c0 -50 -40 -90 -90 -90s-90 40 -90 90s40 90 90 90s90 -40 90 -90z" />
    <glyph glyph-name="multiply" unicode="&#xd7;" horiz-adv-x="540" 
d="M270 210l-120 -120l-120 120l120 120l-120 120l120 120l120 -120l120 120l120 -120l-120 -120l120 -120l-120 -120z" />
    <glyph glyph-name="Oslash" unicode="&#xd8;" horiz-adv-x="860" 
d="M400 230h30c60 0 110 50 110 120v40zM430 -15c-130 0 -205 50 -205 50l-65 -75l-85 75l60 70s-95 85 -95 244c0 206 160 366 390 366c130 0 205 -50 205 -50l65 75l85 -75l-60 -70s95 -85 95 -244c0 -206 -160 -366 -390 -366zM460 470h-30c-60 0 -110 -50 -110 -120v-40
z" />
    <glyph glyph-name="Ugrave" unicode="&#xd9;" horiz-adv-x="800" 
d="M400 235c45 0 80 35 80 90v375h260v-375c0 -200 -140 -340 -340 -340s-340 140 -340 340v375h260v-375c0 -55 35 -90 80 -90zM390 980l90 -210h-160l-140 210h210z" />
    <glyph glyph-name="Uacute" unicode="&#xda;" horiz-adv-x="800" 
d="M400 235c45 0 80 35 80 90v375h260v-375c0 -200 -140 -340 -340 -340s-340 140 -340 340v375h260v-375c0 -55 35 -90 80 -90zM320 770l90 210h210l-140 -210h-160z" />
    <glyph glyph-name="Ucircumflex" unicode="&#xdb;" horiz-adv-x="800" 
d="M400 235c45 0 80 35 80 90v375h260v-375c0 -200 -140 -340 -340 -340s-340 140 -340 340v375h260v-375c0 -55 35 -90 80 -90zM480 940l120 -170h-150l-50 80l-50 -80h-150l120 170h160z" />
    <glyph glyph-name="Udieresis" unicode="&#xdc;" horiz-adv-x="800" 
d="M400 235c45 0 80 35 80 90v375h260v-375c0 -200 -140 -340 -340 -340s-340 140 -340 340v375h260v-375c0 -55 35 -90 80 -90zM600 860c0 -50 -40 -90 -90 -90s-90 40 -90 90s40 90 90 90s90 -40 90 -90zM380 860c0 -50 -40 -90 -90 -90s-90 40 -90 90s40 90 90 90
s90 -40 90 -90z" />
    <glyph glyph-name="Yacute" unicode="&#xdd;" horiz-adv-x="700" 
d="M280 700l70 -200l70 200h300l-240 -430v-270h-260v270l-240 430h300zM270 770l90 210h210l-140 -210h-160z" />
    <glyph glyph-name="Thorn" unicode="&#xde;" horiz-adv-x="710" 
d="M60 -10v720h260v-115h90c170 0 270 -100 270 -245s-100 -245 -270 -245h-90v-115h-260zM320 295h40c35 0 60 25 60 55s-25 55 -60 55h-40v-110z" />
    <glyph glyph-name="germandbls" unicode="&#xdf;" horiz-adv-x="680" 
d="M520 370c0 -30 140 -50 140 -180c0 -100 -90 -190 -290 -190v180c35 0 60 25 60 50c0 50 -90 80 -90 140s70 90 70 140c0 20 -20 40 -40 40c-25 0 -50 -25 -50 -60v-460c0 -100 -20 -170 -20 -170h-260s20 70 20 170v450c0 140 100 240 310 240c160 0 250 -90 250 -180
c0 -110 -100 -140 -100 -170z" />
    <glyph glyph-name="agrave" unicode="&#xe0;" horiz-adv-x="620" 
d="M285 545c170 0 295 -125 295 -280v-265h-230l-20 60s-40 -75 -130 -75c-110 0 -180 70 -180 165s70 165 240 165h80s-10 55 -90 55c-50 0 -90 -40 -90 -40l-85 135s75 80 210 80zM290 145c25 0 50 25 50 85c-55 0 -80 -25 -80 -55c0 -15 15 -30 30 -30zM340 810l90 -210
h-160l-140 210h210z" />
    <glyph glyph-name="aacute" unicode="&#xe1;" horiz-adv-x="620" 
d="M285 545c170 0 295 -125 295 -280v-265h-230l-20 60s-40 -75 -130 -75c-110 0 -180 70 -180 165s70 165 240 165h80s-10 55 -90 55c-50 0 -90 -40 -90 -40l-85 135s75 80 210 80zM290 145c25 0 50 25 50 85c-55 0 -80 -25 -80 -55c0 -15 15 -30 30 -30zM250 600l90 210
h210l-140 -210h-160z" />
    <glyph glyph-name="acircumflex" unicode="&#xe2;" horiz-adv-x="620" 
d="M285 545c170 0 295 -125 295 -280v-265h-230l-20 60s-40 -75 -130 -75c-110 0 -180 70 -180 165s70 165 240 165h80s-10 55 -90 55c-50 0 -90 -40 -90 -40l-85 135s75 80 210 80zM290 145c25 0 50 25 50 85c-55 0 -80 -25 -80 -55c0 -15 15 -30 30 -30zM410 770l120 -170
h-150l-50 80l-50 -80h-150l120 170h160z" />
    <glyph glyph-name="atilde" unicode="&#xe3;" horiz-adv-x="620" 
d="M285 545c170 0 295 -125 295 -280v-265h-230l-20 60s-40 -75 -130 -75c-110 0 -180 70 -180 165s70 165 240 165h80s-10 55 -90 55c-50 0 -90 -40 -90 -40l-85 135s75 80 210 80zM290 145c25 0 50 25 50 85c-55 0 -80 -25 -80 -55c0 -15 15 -30 30 -30zM400 600
c-60 0 -85 50 -110 50c-15 0 -30 -15 -30 -40h-90v70c0 60 40 100 90 100c60 0 85 -50 110 -50c15 0 30 15 30 40h90v-70c0 -60 -40 -100 -90 -100z" />
    <glyph glyph-name="adieresis" unicode="&#xe4;" horiz-adv-x="620" 
d="M285 545c170 0 295 -125 295 -280v-265h-230l-20 60s-40 -75 -130 -75c-110 0 -180 70 -180 165s70 165 240 165h80s-10 55 -90 55c-50 0 -90 -40 -90 -40l-85 135s75 80 210 80zM290 145c25 0 50 25 50 85c-55 0 -80 -25 -80 -55c0 -15 15 -30 30 -30zM540 690
c0 -50 -40 -90 -90 -90s-90 40 -90 90s40 90 90 90s90 -40 90 -90zM320 690c0 -50 -40 -90 -90 -90s-90 40 -90 90s40 90 90 90s90 -40 90 -90z" />
    <glyph glyph-name="aring" unicode="&#xe5;" horiz-adv-x="620" 
d="M285 545c170 0 295 -125 295 -280v-265h-230l-20 60s-40 -75 -130 -75c-110 0 -180 70 -180 165s70 165 240 165h80s-10 55 -90 55c-50 0 -90 -40 -90 -40l-85 135s75 80 210 80zM290 145c25 0 50 25 50 85c-55 0 -80 -25 -80 -55c0 -15 15 -30 30 -30zM210 720
c0 75 55 130 130 130s130 -55 130 -130s-55 -130 -130 -130s-130 55 -130 130zM300 720c0 -20 20 -40 40 -40s40 20 40 40s-20 40 -40 40s-40 -20 -40 -40z" />
    <glyph glyph-name="ae" unicode="&#xe6;" horiz-adv-x="925" 
d="M625 545c155 0 280 -125 280 -280v-50h-320s10 -55 90 -55c50 0 90 40 90 40l85 -135s-75 -80 -210 -80c-115 0 -175 65 -175 65s-60 -65 -205 -65c-170 0 -240 70 -240 165s70 165 240 165h80s-10 55 -90 55c-50 0 -90 -40 -90 -40l-85 135s75 80 205 80
c125 0 185 -65 185 -65s60 65 160 65zM340 160v70c-55 0 -80 -25 -80 -50c0 -20 15 -35 40 -35c20 0 40 15 40 15zM580 310h90c0 40 -20 60 -45 60s-45 -20 -45 -60z" />
    <glyph glyph-name="ccedilla" unicode="&#xe7;" horiz-adv-x="560" 
d="M280 265c0 -45 30 -75 80 -75s90 40 90 40l100 -160s-80 -80 -210 -85l-20 -45c65 0 120 -55 120 -120c0 -75 -55 -130 -140 -130h-90v100h70c15 0 30 15 30 30s-15 30 -30 30h-60l55 140c-145 20 -245 135 -245 275c0 155 125 280 295 280c145 0 225 -85 225 -85
l-100 -160s-40 40 -90 40s-80 -30 -80 -75z" />
    <glyph glyph-name="egrave" unicode="&#xe8;" horiz-adv-x="610" 
d="M310 545c155 0 280 -125 280 -280v-50h-320s10 -55 90 -55c50 0 90 40 90 40l85 -135s-75 -80 -210 -80c-170 0 -295 125 -295 280s125 280 280 280zM265 310h90c0 40 -20 60 -45 60s-45 -20 -45 -60zM300 810l90 -210h-160l-140 210h210z" />
    <glyph glyph-name="eacute" unicode="&#xe9;" horiz-adv-x="610" 
d="M310 545c155 0 280 -125 280 -280v-50h-320s10 -55 90 -55c50 0 90 40 90 40l85 -135s-75 -80 -210 -80c-170 0 -295 125 -295 280s125 280 280 280zM265 310h90c0 40 -20 60 -45 60s-45 -20 -45 -60zM220 600l90 210h210l-140 -210h-160z" />
    <glyph glyph-name="ecircumflex" unicode="&#xea;" horiz-adv-x="610" 
d="M310 545c155 0 280 -125 280 -280v-50h-320s10 -55 90 -55c50 0 90 40 90 40l85 -135s-75 -80 -210 -80c-170 0 -295 125 -295 280s125 280 280 280zM265 310h90c0 40 -20 60 -45 60s-45 -20 -45 -60zM390 770l120 -170h-150l-50 80l-50 -80h-150l120 170h160z" />
    <glyph glyph-name="edieresis" unicode="&#xeb;" horiz-adv-x="610" 
d="M310 545c155 0 280 -125 280 -280v-50h-320s10 -55 90 -55c50 0 90 40 90 40l85 -135s-75 -80 -210 -80c-170 0 -295 125 -295 280s125 280 280 280zM265 310h90c0 40 -20 60 -45 60s-45 -20 -45 -60zM510 690c0 -50 -40 -90 -90 -90s-90 40 -90 90s40 90 90 90
s90 -40 90 -90zM290 690c0 -50 -40 -90 -90 -90s-90 40 -90 90s40 90 90 90s90 -40 90 -90z" />
    <glyph glyph-name="igrave" unicode="&#xec;" horiz-adv-x="340" 
d="M50 530h240v-530h-240v530zM160 810l90 -210h-160l-140 210h210z" />
    <glyph glyph-name="iacute" unicode="&#xed;" horiz-adv-x="340" 
d="M50 530h240v-530h-240v530zM90 600l90 210h210l-140 -210h-160z" />
    <glyph glyph-name="icircumflex" unicode="&#xee;" horiz-adv-x="340" 
d="M50 530h240v-530h-240v530zM250 770l120 -170h-150l-50 80l-50 -80h-150l120 170h160z" />
    <glyph glyph-name="idieresis" unicode="&#xef;" horiz-adv-x="340" 
d="M50 530h240v-530h-240v530zM380 690c0 -50 -40 -90 -90 -90s-90 40 -90 90s40 90 90 90s90 -40 90 -90zM160 690c0 -50 -40 -90 -90 -90s-90 40 -90 90s40 90 90 90s90 -40 90 -90z" />
    <glyph glyph-name="eth" unicode="&#xf0;" horiz-adv-x="650" 
d="M160 560l35 55s-44 5 -85 5l40 170c80 0 145 -15 145 -15l55 85l60 -40l-40 -65s250 -65 250 -385v-40c0 -220 -125 -345 -295 -345s-295 125 -295 280c0 145 100 245 230 245c100 0 150 -60 150 -60c0 120 -140 150 -140 150l-50 -80zM270 265c0 -50 24 -75 55 -75
s55 25 55 75s-24 75 -55 75s-55 -25 -55 -75z" />
    <glyph glyph-name="ntilde" unicode="&#xf1;" horiz-adv-x="650" 
d="M430 545c100 0 180 -80 180 -265v-280h-240v280c0 40 -20 60 -40 60s-40 -20 -40 -60v-280h-240v530h230l20 -60s40 75 130 75zM400 590c-60 0 -85 50 -110 50c-15 0 -30 -15 -30 -40h-90v70c0 60 40 100 90 100c60 0 85 -50 110 -50c15 0 30 15 30 40h90v-70
c0 -60 -40 -100 -90 -100z" />
    <glyph glyph-name="ograve" unicode="&#xf2;" 
d="M30 265c0 155 125 280 305 280s305 -125 305 -280s-125 -280 -305 -280s-305 125 -305 280zM400 265c0 45 -30 75 -65 75s-65 -30 -65 -75s30 -75 65 -75s65 30 65 75zM320 810l90 -210h-160l-140 210h210z" />
    <glyph glyph-name="oacute" unicode="&#xf3;" 
d="M30 265c0 155 125 280 305 280s305 -125 305 -280s-125 -280 -305 -280s-305 125 -305 280zM400 265c0 45 -30 75 -65 75s-65 -30 -65 -75s30 -75 65 -75s65 30 65 75zM250 600l90 210h210l-140 -210h-160z" />
    <glyph glyph-name="ocircumflex" unicode="&#xf4;" 
d="M30 265c0 155 125 280 305 280s305 -125 305 -280s-125 -280 -305 -280s-305 125 -305 280zM400 265c0 45 -30 75 -65 75s-65 -30 -65 -75s30 -75 65 -75s65 30 65 75zM415 770l120 -170h-150l-50 80l-50 -80h-150l120 170h160z" />
    <glyph glyph-name="otilde" unicode="&#xf5;" 
d="M30 265c0 155 125 280 305 280s305 -125 305 -280s-125 -280 -305 -280s-305 125 -305 280zM400 265c0 45 -30 75 -65 75s-65 -30 -65 -75s30 -75 65 -75s65 30 65 75zM405 600c-60 0 -85 50 -110 50c-15 0 -30 -15 -30 -40h-90v70c0 60 40 100 90 100
c60 0 85 -50 110 -50c15 0 30 15 30 40h90v-70c0 -60 -40 -100 -90 -100z" />
    <glyph glyph-name="odieresis" unicode="&#xf6;" 
d="M30 265c0 155 125 280 305 280s305 -125 305 -280s-125 -280 -305 -280s-305 125 -305 280zM400 265c0 45 -30 75 -65 75s-65 -30 -65 -75s30 -75 65 -75s65 30 65 75zM535 690c0 -50 -40 -90 -90 -90s-90 40 -90 90s40 90 90 90s90 -40 90 -90zM315 690
c0 -50 -40 -90 -90 -90s-90 40 -90 90s40 90 90 90s90 -40 90 -90z" />
    <glyph glyph-name="divide" unicode="&#xf7;" horiz-adv-x="490" 
d="M30 230v190h430v-190h-430zM140 170h210v-150h-210v150zM140 630h210v-150h-210v150z" />
    <glyph glyph-name="oslash" unicode="&#xf8;" 
d="M350 350h-15c-40 0 -75 -35 -75 -84v-11zM335 545c100 0 160 -40 160 -40l60 65l60 -60l-50 -55s75 -65 75 -190c0 -155 -125 -280 -305 -280c-100 0 -160 40 -160 40l-60 -65l-60 60l50 55s-75 65 -75 190c0 155 125 280 305 280zM320 180h15c40 0 75 35 75 84v11z" />
    <glyph glyph-name="ugrave" unicode="&#xf9;" horiz-adv-x="660" 
d="M230 -15c-100 0 -180 80 -180 265v280h240v-280c0 -40 20 -60 40 -60s40 20 40 60v280h240v-530h-230l-20 60s-40 -75 -130 -75zM320 810l90 -210h-160l-140 210h210z" />
    <glyph glyph-name="uacute" unicode="&#xfa;" horiz-adv-x="660" 
d="M230 -15c-100 0 -180 80 -180 265v280h240v-280c0 -40 20 -60 40 -60s40 20 40 60v280h240v-530h-230l-20 60s-40 -75 -130 -75zM250 600l90 210h210l-140 -210h-160z" />
    <glyph glyph-name="ucircumflex" unicode="&#xfb;" horiz-adv-x="660" 
d="M230 -15c-100 0 -180 80 -180 265v280h240v-280c0 -40 20 -60 40 -60s40 20 40 60v280h240v-530h-230l-20 60s-40 -75 -130 -75zM410 770l120 -170h-150l-50 80l-50 -80h-150l120 170h160z" />
    <glyph glyph-name="udieresis" unicode="&#xfc;" horiz-adv-x="660" 
d="M230 -15c-100 0 -180 80 -180 265v280h240v-280c0 -40 20 -60 40 -60s40 20 40 60v280h240v-530h-230l-20 60s-40 -75 -130 -75zM530 690c0 -50 -40 -90 -90 -90s-90 40 -90 90s40 90 90 90s90 -40 90 -90zM310 690c0 -50 -40 -90 -90 -90s-90 40 -90 90s40 90 90 90
s90 -40 90 -90z" />
    <glyph glyph-name="yacute" unicode="&#xfd;" horiz-adv-x="590" 
d="M160 -40l15 40l-175 530h250l45 -280l45 280h250l-190 -570c-60 -180 -130 -250 -255 -250c-70 0 -130 40 -130 40l55 175s15 -10 35 -10c25 0 46 20 55 45zM210 600l90 210h210l-140 -210h-160z" />
    <glyph glyph-name="thorn" unicode="&#xfe;" 
d="M390 265c0 50 -25 75 -55 75s-55 -25 -55 -75s25 -75 55 -75s55 25 55 75zM50 740h240v-270s40 75 140 75c110 0 210 -100 210 -280s-100 -280 -210 -280c-100 0 -140 75 -140 75v-310h-240v990z" />
    <glyph glyph-name="ydieresis" unicode="&#xff;" horiz-adv-x="590" 
d="M160 -40l15 40l-175 530h250l45 -280l45 280h250l-190 -570c-60 -180 -130 -250 -255 -250c-70 0 -130 40 -130 40l55 175s15 -10 35 -10c25 0 46 20 55 45zM500 690c0 -50 -40 -90 -90 -90s-90 40 -90 90s40 90 90 90s90 -40 90 -90zM280 690c0 -50 -40 -90 -90 -90
s-90 40 -90 90s40 90 90 90s90 -40 90 -90z" />
    <glyph glyph-name="Amacron" unicode="&#x100;" horiz-adv-x="770" 
d="M555 700c1 -4 205 -700 205 -700h-290l-20 100h-130l-20 -100h-290l205 700h340zM350 260h70l-35 180zM230 780v140h310v-140h-310z" />
    <glyph glyph-name="amacron" unicode="&#x101;" horiz-adv-x="620" 
d="M285 545c170 0 295 -125 295 -280v-265h-230l-20 60s-40 -75 -130 -75c-110 0 -180 70 -180 165s70 165 240 165h80s-10 55 -90 55c-50 0 -90 -40 -90 -40l-85 135s75 80 210 80zM290 145c25 0 50 25 50 85c-55 0 -80 -25 -80 -55c0 -15 15 -30 30 -30zM180 610v140h310
v-140h-310z" />
    <glyph glyph-name="Abreve" unicode="&#x102;" horiz-adv-x="770" 
d="M555 700c1 -4 205 -700 205 -700h-290l-20 100h-130l-20 -100h-290l205 700h340zM350 260h70l-35 180zM385 920c25 0 40 15 40 40h150c0 -115 -75 -190 -190 -190s-190 75 -190 190h150c0 -25 15 -40 40 -40z" />
    <glyph glyph-name="abreve" unicode="&#x103;" horiz-adv-x="620" 
d="M285 545c170 0 295 -125 295 -280v-265h-230l-20 60s-40 -75 -130 -75c-110 0 -180 70 -180 165s70 165 240 165h80s-10 55 -90 55c-50 0 -90 -40 -90 -40l-85 135s75 80 210 80zM290 145c25 0 50 25 50 85c-55 0 -80 -25 -80 -55c0 -15 15 -30 30 -30zM340 750
c25 0 40 15 40 40h150c0 -115 -75 -190 -190 -190s-190 75 -190 190h150c0 -25 15 -40 40 -40z" />
    <glyph glyph-name="Aogonek" unicode="&#x104;" horiz-adv-x="770" 
d="M760 0c0 0 -100 -80 -100 -130c0 -10 10 -20 20 -20h60v-120h-100c-70 0 -120 50 -120 110c0 110 170 160 170 160h-220l-20 100h-130l-20 -100h-290l205 700h340c1 -4 205 -700 205 -700zM350 260h70l-35 180z" />
    <glyph glyph-name="aogonek" unicode="&#x105;" horiz-adv-x="620" 
d="M285 545c170 0 295 -125 295 -280v-265s-100 -80 -100 -130c0 -10 10 -20 20 -20h60v-120h-100c-70 0 -120 50 -120 110c0 110 170 160 170 160h-160l-20 60s-40 -75 -130 -75c-110 0 -180 70 -180 165s70 165 240 165h80s-10 55 -90 55c-50 0 -90 -40 -90 -40l-85 135
s75 80 210 80zM290 145c25 0 50 25 50 85c-55 0 -80 -25 -80 -55c0 -15 15 -30 30 -30z" />
    <glyph glyph-name="Cacute" unicode="&#x106;" horiz-adv-x="710" 
d="M40 350c0 205 160 365 370 365c190 0 280 -110 280 -110l-120 -190s-60 55 -130 55s-120 -50 -120 -120s50 -120 120 -120s130 55 130 55l120 -190s-90 -110 -280 -110c-210 0 -370 160 -370 365zM310 770l90 210h210l-140 -210h-160z" />
    <glyph glyph-name="cacute" unicode="&#x107;" horiz-adv-x="560" 
d="M280 265c0 -45 30 -75 80 -75s90 40 90 40l100 -160s-80 -85 -225 -85c-170 0 -295 125 -295 280s125 280 295 280c145 0 225 -85 225 -85l-100 -160s-40 40 -90 40s-80 -30 -80 -75zM220 600l90 210h210l-140 -210h-160z" />
    <glyph glyph-name="Ccircumflex" unicode="&#x108;" horiz-adv-x="710" 
d="M40 350c0 205 160 365 370 365c190 0 280 -110 280 -110l-120 -190s-60 55 -130 55s-120 -50 -120 -120s50 -120 120 -120s130 55 130 55l120 -190s-90 -110 -280 -110c-210 0 -370 160 -370 365zM460 940l120 -170h-150l-50 80l-50 -80h-150l120 170h160z" />
    <glyph glyph-name="ccircumflex" unicode="&#x109;" horiz-adv-x="560" 
d="M280 265c0 -45 30 -75 80 -75s90 40 90 40l100 -160s-80 -85 -225 -85c-170 0 -295 125 -295 280s125 280 295 280c145 0 225 -85 225 -85l-100 -160s-40 40 -90 40s-80 -30 -80 -75zM400 770l120 -170h-150l-50 80l-50 -80h-150l120 170h160z" />
    <glyph glyph-name="Ccaron" unicode="&#x10c;" horiz-adv-x="710" 
d="M40 350c0 205 160 365 370 365c190 0 280 -110 280 -110l-120 -190s-60 55 -130 55s-120 -50 -120 -120s50 -120 120 -120s130 55 130 55l120 -190s-90 -110 -280 -110c-210 0 -370 160 -370 365zM590 940l-120 -170h-160l-120 170h150l50 -80l50 80h150z" />
    <glyph glyph-name="ccaron" unicode="&#x10d;" horiz-adv-x="560" 
d="M280 265c0 -45 30 -75 80 -75s90 40 90 40l100 -160s-80 -85 -225 -85c-170 0 -295 125 -295 280s125 280 295 280c145 0 225 -85 225 -85l-100 -160s-40 40 -90 40s-80 -30 -80 -75zM510 770l-120 -170h-160l-120 170h150l50 -80l50 80h150z" />
    <glyph glyph-name="Dcaron" unicode="&#x10e;" horiz-adv-x="800" 
d="M320 210h40c75 0 120 45 120 140s-45 140 -120 140h-40v-280zM760 350c0 -215 -134 -360 -400 -360c-160 0 -300 10 -300 10v700s140 10 300 10c266 0 400 -145 400 -360zM590 940l-120 -170h-160l-120 170h150l50 -80l50 80h150z" />
    <glyph glyph-name="dcaron" unicode="&#x10f;" horiz-adv-x="830" 
d="M30 265c0 180 100 280 210 280c100 0 140 -75 140 -75v270h240v-740h-220l-20 60s-40 -75 -140 -75c-110 0 -210 100 -210 280zM280 265c0 -50 25 -75 55 -75s55 25 55 75s-25 75 -55 75s-55 -25 -55 -75zM850 740v-150l-70 -150h-80l40 120h-80v180h190z" />
    <glyph glyph-name="Dcroat" unicode="&#x110;" horiz-adv-x="800" 
d="M320 210h40c75 0 120 45 120 140s-45 140 -120 140h-40v-280zM760 350c0 -215 -134 -360 -400 -360c-160 0 -300 10 -300 10v700s140 10 300 10c266 0 400 -145 400 -360zM240 770v140h310v-140h-310z" />
    <glyph glyph-name="dcroat" unicode="&#x111;" horiz-adv-x="690" 
d="M620 530v-530h-220l-20 60s-40 -75 -140 -75c-110 0 -210 100 -210 260s100 260 210 260c100 0 140 -75 140 -75v100h-100v130h100v80h240v-80h70v-130h-70zM280 245c0 -30 25 -55 55 -55s55 25 55 55s-25 55 -55 55s-55 -25 -55 -55z" />
    <glyph glyph-name="Emacron" unicode="&#x112;" horiz-adv-x="650" 
d="M320 250v-50h300v-200h-560v700h540v-200h-280v-50h260v-200h-260zM180 790v140h310v-140h-310z" />
    <glyph glyph-name="emacron" unicode="&#x113;" horiz-adv-x="610" 
d="M310 545c155 0 280 -125 280 -280v-50h-320s10 -55 90 -55c50 0 90 40 90 40l85 -135s-75 -80 -210 -80c-170 0 -295 125 -295 280s125 280 280 280zM265 310h90c0 40 -20 60 -45 60s-45 -20 -45 -60zM155 600v140h310v-140h-310z" />
    <glyph glyph-name="Edotaccent" unicode="&#x116;" horiz-adv-x="650" 
d="M320 250v-50h300v-200h-560v700h540v-200h-280v-50h260v-200h-260zM240 870c0 55 45 100 100 100s100 -45 100 -100s-45 -100 -100 -100s-100 45 -100 100z" />
    <glyph glyph-name="edotaccent" unicode="&#x117;" horiz-adv-x="610" 
d="M310 545c155 0 280 -125 280 -280v-50h-320s10 -55 90 -55c50 0 90 40 90 40l85 -135s-75 -80 -210 -80c-170 0 -295 125 -295 280s125 280 280 280zM265 310h90c0 40 -20 60 -45 60s-45 -20 -45 -60zM210 700c0 55 45 100 100 100s100 -45 100 -100s-45 -100 -100 -100
s-100 45 -100 100z" />
    <glyph glyph-name="Eogonek" unicode="&#x118;" horiz-adv-x="650" 
d="M320 250v-50h300v-200h-180s-100 -80 -100 -130c0 -10 10 -20 20 -20h60v-120h-100c-70 0 -120 50 -120 110c0 110 170 160 170 160h-310v700h540v-200h-280v-50h260v-200h-260z" />
    <glyph glyph-name="eogonek" unicode="&#x119;" horiz-adv-x="610" 
d="M310 545c155 0 280 -125 280 -280v-50h-320s10 -55 90 -55c50 0 90 40 90 40l85 -135s-55 -35 -115 -65c-40 -20 -100 -80 -100 -130c0 -10 10 -20 20 -20h60v-120h-100c-70 0 -120 50 -120 110c0 80 130 145 130 145c-160 5 -280 125 -280 280s125 280 280 280zM265 310
h90c0 40 -20 60 -45 60s-45 -20 -45 -60z" />
    <glyph glyph-name="Ecaron" unicode="&#x11a;" horiz-adv-x="650" 
d="M320 250v-50h300v-200h-560v700h540v-200h-280v-50h260v-200h-260zM530 940l-120 -170h-160l-120 170h150l50 -80l50 80h150z" />
    <glyph glyph-name="ecaron" unicode="&#x11b;" horiz-adv-x="610" 
d="M310 545c155 0 280 -125 280 -280v-50h-320s10 -55 90 -55c50 0 90 40 90 40l85 -135s-75 -80 -210 -80c-170 0 -295 125 -295 280s125 280 280 280zM265 310h90c0 40 -20 60 -45 60s-45 -20 -45 -60zM510 770l-120 -170h-160l-120 170h150l50 -80l50 80h150z" />
    <glyph glyph-name="Gbreve" unicode="&#x11e;" horiz-adv-x="740" 
d="M440 230h20v120h240v-245s-90 -120 -290 -120c-210 0 -370 160 -370 365s160 365 370 365c190 0 280 -110 280 -110l-120 -190s-60 55 -130 55s-120 -50 -120 -120s50 -120 120 -120zM400 920c25 0 40 15 40 40h150c0 -115 -75 -190 -190 -190s-190 75 -190 190h150
c0 -25 15 -40 40 -40z" />
    <glyph glyph-name="gbreve" unicode="&#x11f;" 
d="M380 20v60s-40 -75 -140 -75c-110 0 -210 100 -210 270s100 270 210 270c100 0 140 -75 140 -75l20 60h220v-510c0 -165 -135 -300 -305 -300c-145 0 -225 85 -225 85l100 160s40 -40 90 -40c60 0 100 40 100 95zM280 275c0 -40 25 -65 55 -65s55 25 55 65s-25 65 -55 65
s-55 -25 -55 -65zM340 750c25 0 40 15 40 40h150c0 -115 -75 -190 -190 -190s-190 75 -190 190h150c0 -25 15 -40 40 -40z" />
    <glyph glyph-name="Gcommaaccent" unicode="&#x122;" horiz-adv-x="740" 
d="M500 -80v-150l-70 -150h-80l40 120h-80v180h190zM440 230h20v120h240v-245s-90 -120 -290 -120c-210 0 -370 160 -370 365s160 365 370 365c190 0 280 -110 280 -110l-120 -190s-60 55 -130 55s-120 -50 -120 -120s50 -120 120 -120z" />
    <glyph glyph-name="gcommaaccent" unicode="&#x123;" 
d="M240 600v150l70 150h80l-40 -120h80v-180h-190zM380 20v60s-40 -75 -140 -75c-110 0 -210 100 -210 270s100 270 210 270c100 0 140 -75 140 -75l20 60h220v-510c0 -165 -135 -300 -305 -300c-145 0 -225 85 -225 85l100 160s40 -40 90 -40c60 0 100 40 100 95zM280 275
c0 -40 25 -65 55 -65s55 25 55 65s-25 65 -55 65s-55 -25 -55 -65z" />
    <glyph glyph-name="Imacron" unicode="&#x12a;" horiz-adv-x="380" 
d="M320 700v-700h-260v700h260zM35 780v140h310v-140h-310z" />
    <glyph glyph-name="imacron" unicode="&#x12b;" horiz-adv-x="340" 
d="M50 530h240v-530h-240v530zM15 610v140h310v-140h-310z" />
    <glyph glyph-name="Iogonek" unicode="&#x12e;" horiz-adv-x="380" 
d="M320 700v-700s-100 -80 -100 -130c0 -10 10 -20 20 -20h60v-120h-100c-70 0 -120 50 -120 110c0 110 170 160 170 160h-190v700h260z" />
    <glyph glyph-name="iogonek" unicode="&#x12f;" horiz-adv-x="340" 
d="M50 530h240v-530s-100 -80 -100 -130c0 -10 10 -20 20 -20h60v-120h-100c-70 0 -120 50 -120 110c0 110 170 160 170 160h-170v530zM50 590v190h240v-190h-240z" />
    <glyph glyph-name="Idotaccent" unicode="&#x130;" horiz-adv-x="380" 
d="M320 700v-700h-260v700h260zM90 870c0 55 45 100 100 100s100 -45 100 -100s-45 -100 -100 -100s-100 45 -100 100z" />
    <glyph glyph-name="dotlessi" unicode="&#x131;" horiz-adv-x="340" 
d="M50 530h240v-530h-240v530z" />
    <glyph glyph-name="Kcommaaccent" unicode="&#x136;" horiz-adv-x="750" 
d="M740 700l-190 -350l210 -350h-300l-140 280v-280h-260v700h260v-280l120 280h300zM480 -80v-150l-70 -150h-80l40 120h-80v180h190z" />
    <glyph glyph-name="kcommaaccent" unicode="&#x137;" horiz-adv-x="645" 
d="M635 530l-140 -260l160 -270h-265l-100 210v-210h-240v740h240v-410l85 200h260zM420 -80v-150l-70 -150h-80l40 120h-80v180h190z" />
    <glyph glyph-name="Lacute" unicode="&#x139;" horiz-adv-x="610" 
d="M320 700v-470h270v-230h-530v700h260zM110 770l90 210h210l-140 -210h-160z" />
    <glyph glyph-name="lacute" unicode="&#x13a;" horiz-adv-x="340" 
d="M50 0v740h240v-740h-240zM90 780l90 210h210l-140 -210h-160z" />
    <glyph glyph-name="Lcommaaccent" unicode="&#x13b;" horiz-adv-x="610" 
d="M320 700v-470h270v-230h-530v700h260zM430 -80v-150l-70 -150h-80l40 120h-80v180h190z" />
    <glyph glyph-name="lcommaaccent" unicode="&#x13c;" horiz-adv-x="340" 
d="M50 0v740h240v-740h-240zM265 -80v-150l-70 -150h-80l40 120h-80v180h190z" />
    <glyph glyph-name="Lcaron" unicode="&#x13d;" horiz-adv-x="610" 
d="M320 700v-470h270v-230h-530v700h260zM590 700v-150l-70 -150h-80l40 120h-80v180h190z" />
    <glyph glyph-name="lcaron" unicode="&#x13e;" horiz-adv-x="500" 
d="M50 0v740h240v-740h-240zM520 740v-150l-70 -150h-80l40 120h-80v180h190z" />
    <glyph glyph-name="Lslash" unicode="&#x141;" horiz-adv-x="640" 
d="M0 240v160l90 35v265h260v-155l90 35v-160l-90 -35v-155h270v-230h-530v275z" />
    <glyph glyph-name="lslash" unicode="&#x142;" horiz-adv-x="420" 
d="M0 240v160l90 40v300h240v-200l90 40v-160l-90 -40v-380h-240v280z" />
    <glyph glyph-name="Nacute" unicode="&#x143;" horiz-adv-x="840" 
d="M490 0l-170 310v-310h-260v700h290l170 -310v310h260v-700h-290zM330 770l90 210h210l-140 -210h-160z" />
    <glyph glyph-name="nacute" unicode="&#x144;" horiz-adv-x="650" 
d="M430 545c100 0 180 -80 180 -265v-280h-240v280c0 40 -20 60 -40 60s-40 -20 -40 -60v-280h-240v530h230l20 -60s40 75 130 75zM240 600l90 210h210l-140 -210h-160z" />
    <glyph glyph-name="Ncommaaccent" unicode="&#x145;" horiz-adv-x="840" 
d="M490 0l-170 310v-310h-260v700h290l170 -310v310h260v-700h-290zM520 -80v-150l-70 -150h-80l40 120h-80v180h190z" />
    <glyph glyph-name="ncommaaccent" unicode="&#x146;" horiz-adv-x="650" 
d="M430 545c100 0 180 -80 180 -265v-280h-240v280c0 40 -20 60 -40 60s-40 -20 -40 -60v-280h-240v530h230l20 -60s40 75 130 75zM425 -80v-150l-70 -150h-80l40 120h-80v180h190z" />
    <glyph glyph-name="Ncaron" unicode="&#x147;" horiz-adv-x="840" 
d="M490 0l-170 310v-310h-260v700h290l170 -310v310h260v-700h-290zM620 940l-120 -170h-160l-120 170h150l50 -80l50 80h150z" />
    <glyph glyph-name="ncaron" unicode="&#x148;" horiz-adv-x="650" 
d="M430 545c100 0 180 -80 180 -265v-280h-240v280c0 40 -20 60 -40 60s-40 -20 -40 -60v-280h-240v530h230l20 -60s40 75 130 75zM520 770l-120 -170h-160l-120 170h150l50 -80l50 80h150z" />
    <glyph glyph-name="Omacron" unicode="&#x14c;" horiz-adv-x="860" 
d="M540 350c0 70 -50 120 -110 120s-110 -50 -110 -120s50 -120 110 -120s110 50 110 120zM820 350c0 -205 -160 -365 -390 -365s-390 160 -390 365s160 365 390 365s390 -160 390 -365zM275 780v140h310v-140h-310z" />
    <glyph glyph-name="omacron" unicode="&#x14d;" 
d="M30 265c0 155 125 280 305 280s305 -125 305 -280s-125 -280 -305 -280s-305 125 -305 280zM400 265c0 45 -30 75 -65 75s-65 -30 -65 -75s30 -75 65 -75s65 30 65 75zM180 620v140h310v-140h-310z" />
    <glyph glyph-name="Ohungarumlaut" unicode="&#x150;" horiz-adv-x="860" 
d="M540 350c0 70 -50 120 -110 120s-110 -50 -110 -120s50 -120 110 -120s110 50 110 120zM820 350c0 -205 -160 -365 -390 -365s-390 160 -390 365s160 365 390 365s390 -160 390 -365zM260 770l90 210h160l-140 -210h-110zM470 770l90 210h160l-140 -210h-110z" />
    <glyph glyph-name="ohungarumlaut" unicode="&#x151;" 
d="M30 265c0 155 125 280 305 280s305 -125 305 -280s-125 -280 -305 -280s-305 125 -305 280zM400 265c0 45 -30 75 -65 75s-65 -30 -65 -75s30 -75 65 -75s65 30 65 75zM170 600l90 210h160l-140 -210h-110zM380 600l90 210h160l-140 -210h-110z" />
    <glyph glyph-name="OE" unicode="&#x152;" horiz-adv-x="1060" 
d="M40 350c0 205 134 350 400 350h570v-200h-280v-50h260v-200h-260v-50h300v-200h-590c-266 0 -400 145 -400 350zM440 210h30v280h-30c-75 0 -120 -45 -120 -140s45 -140 120 -140z" />
    <glyph glyph-name="oe" unicode="&#x153;" horiz-adv-x="980" 
d="M680 545c155 0 280 -125 280 -280v-50h-320s10 -55 90 -55c50 0 90 40 90 40l85 -135s-75 -80 -210 -80c-115 0 -175 65 -175 65s-60 -65 -185 -65c-180 0 -305 125 -305 280s125 280 305 280c125 0 185 -65 185 -65s60 65 160 65zM400 265c0 45 -30 75 -65 75
s-65 -30 -65 -75s30 -75 65 -75s65 30 65 75zM635 318c0 -3 1 -6 1 -8h89c0 40 -20 60 -45 60c-24 0 -43 -18 -45 -52z" />
    <glyph glyph-name="Racute" unicode="&#x154;" horiz-adv-x="730" 
d="M750 0h-300l-120 230h-10v-230h-260v700s140 10 290 10c220 0 320 -100 320 -245s-90 -195 -90 -195zM320 410h30c35 0 60 25 60 55s-25 55 -60 55h-30v-110zM270 770l90 210h210l-140 -210h-160z" />
    <glyph glyph-name="racute" unicode="&#x155;" horiz-adv-x="480" 
d="M300 470c0 0 40 75 120 75c40 0 70 -15 70 -15l-40 -220s-40 20 -70 20c-50 0 -90 -40 -90 -110v-220h-240v530h230zM180 600l90 210h210l-140 -210h-160z" />
    <glyph glyph-name="Rcommaaccent" unicode="&#x156;" horiz-adv-x="730" 
d="M750 0h-300l-120 230h-10v-230h-260v700s140 10 290 10c220 0 320 -100 320 -245s-90 -195 -90 -195zM320 410h30c35 0 60 25 60 55s-25 55 -60 55h-30v-110zM480 -80v-150l-70 -150h-80l40 120h-80v180h190z" />
    <glyph glyph-name="rcommaaccent" unicode="&#x157;" horiz-adv-x="480" 
d="M300 470c0 0 40 75 120 75c40 0 70 -15 70 -15l-40 -220s-40 20 -70 20c-50 0 -90 -40 -90 -110v-220h-240v530h230zM265 -80v-150l-70 -150h-80l40 120h-80v180h190z" />
    <glyph glyph-name="Rcaron" unicode="&#x158;" horiz-adv-x="730" 
d="M750 0h-300l-120 230h-10v-230h-260v700s140 10 290 10c220 0 320 -100 320 -245s-90 -195 -90 -195zM320 410h30c35 0 60 25 60 55s-25 55 -60 55h-30v-110zM550 940l-120 -170h-160l-120 170h150l50 -80l50 80h150z" />
    <glyph glyph-name="rcaron" unicode="&#x159;" horiz-adv-x="480" 
d="M300 470c0 0 40 75 120 75c40 0 70 -15 70 -15l-40 -220s-40 20 -70 20c-50 0 -90 -40 -90 -110v-220h-240v530h230zM470 770l-120 -170h-160l-120 170h150l50 -80l50 80h150z" />
    <glyph glyph-name="Sacute" unicode="&#x15a;" horiz-adv-x="625" 
d="M275 190c25 0 40 15 40 30c0 50 -270 50 -270 270c0 115 110 225 285 225c180 0 270 -110 270 -110l-95 -150s-60 55 -130 55c-25 0 -40 -15 -40 -30c0 -50 270 -50 270 -270c0 -115 -110 -225 -285 -225c-220 0 -310 120 -310 120l95 150s70 -65 170 -65zM219 770
l90 210h210l-140 -210h-160z" />
    <glyph glyph-name="sacute" unicode="&#x15b;" horiz-adv-x="515" 
d="M495 160c0 -95 -80 -175 -235 -175c-165 0 -250 95 -250 95l75 120s50 -50 125 -50c15 0 25 10 25 20c0 30 -195 40 -195 200c0 95 80 175 235 175c135 0 220 -85 220 -85l-75 -120s-40 40 -95 40c-15 0 -25 -10 -25 -20c0 -30 195 -40 195 -200zM180 600l90 210h210
l-140 -210h-160z" />
    <glyph glyph-name="Scedilla" unicode="&#x15e;" horiz-adv-x="625" 
d="M275 190c25 0 40 15 40 30c0 50 -270 50 -270 270c0 115 110 225 285 225c180 0 270 -110 270 -110l-95 -150s-60 55 -130 55c-25 0 -40 -15 -40 -30c0 -50 270 -50 270 -270c0 -110 -105 -215 -260 -225l-20 -45c65 0 120 -55 120 -120c0 -75 -55 -130 -140 -130h-90
v100h70c15 0 30 15 30 30s-15 30 -30 30h-60l55 140c-190 10 -270 115 -270 115l95 150s70 -65 170 -65z" />
    <glyph glyph-name="scedilla" unicode="&#x15f;" horiz-adv-x="515" 
d="M495 160c0 -89 -70 -165 -205 -175l-20 -45c65 0 120 -55 120 -120c0 -75 -55 -130 -140 -130h-90v100h70c15 0 30 15 30 30s-15 30 -30 30h-60l55 135c-145 15 -215 95 -215 95l75 120s50 -50 125 -50c15 0 25 10 25 20c0 30 -195 40 -195 200c0 95 80 175 235 175
c135 0 220 -85 220 -85l-75 -120s-40 40 -95 40c-15 0 -25 -10 -25 -20c0 -30 195 -40 195 -200z" />
    <glyph glyph-name="Scaron" unicode="&#x160;" horiz-adv-x="625" 
d="M275 190c25 0 40 15 40 30c0 50 -270 50 -270 270c0 115 110 225 285 225c180 0 270 -110 270 -110l-95 -150s-60 55 -130 55c-25 0 -40 -15 -40 -30c0 -50 270 -50 270 -270c0 -115 -110 -225 -285 -225c-220 0 -310 120 -310 120l95 150s70 -65 170 -65zM520 940
l-120 -170h-160l-120 170h150l50 -80l50 80h150z" />
    <glyph glyph-name="scaron" unicode="&#x161;" horiz-adv-x="515" 
d="M495 160c0 -95 -80 -175 -235 -175c-165 0 -250 95 -250 95l75 120s50 -50 125 -50c15 0 25 10 25 20c0 30 -195 40 -195 200c0 95 80 175 235 175c135 0 220 -85 220 -85l-75 -120s-40 40 -95 40c-15 0 -25 -10 -25 -20c0 -30 195 -40 195 -200zM470 770l-120 -170h-160
l-120 170h150l50 -80l50 80h150z" />
    <glyph glyph-name="Tcommaaccent" unicode="&#x162;" horiz-adv-x="660" 
d="M10 700h640v-230h-190v-470h-260v470h-190v230zM425 -80v-150l-70 -150h-80l40 120h-80v180h190z" />
    <glyph glyph-name="tcommaaccent" unicode="&#x163;" horiz-adv-x="470" 
d="M90 330h-70v200h70v170h240v-170h90v-200h-90v-85c0 -40 20 -60 50 -60c20 0 40 5 40 5v-200s-40 -10 -90 -10c-150 0 -240 90 -240 265v85zM360 -80v-150l-70 -150h-80l40 120h-80v180h190z" />
    <glyph glyph-name="Tcaron" unicode="&#x164;" horiz-adv-x="660" 
d="M10 700h640v-230h-190v-470h-260v470h-190v230zM530 940l-120 -170h-160l-120 170h150l50 -80l50 80h150z" />
    <glyph glyph-name="tcaron" unicode="&#x165;" horiz-adv-x="590" 
d="M90 330h-70v200h70v170h240v-170h90v-200h-90v-85c0 -40 20 -60 50 -60c20 0 40 5 40 5v-200s-40 -10 -90 -10c-150 0 -240 90 -240 265v85zM610 710v-150l-70 -150h-80l40 120h-80v180h190z" />
    <glyph glyph-name="Umacron" unicode="&#x16a;" horiz-adv-x="800" 
d="M400 235c45 0 80 35 80 90v375h260v-375c0 -200 -140 -340 -340 -340s-340 140 -340 340v375h260v-375c0 -55 35 -90 80 -90zM245 790v140h310v-140h-310z" />
    <glyph glyph-name="umacron" unicode="&#x16b;" horiz-adv-x="660" 
d="M230 -15c-100 0 -180 80 -180 265v280h240v-280c0 -40 20 -60 40 -60s40 20 40 60v280h240v-530h-230l-20 60s-40 -75 -130 -75zM175 620v140h310v-140h-310z" />
    <glyph glyph-name="Uring" unicode="&#x16e;" horiz-adv-x="800" 
d="M400 235c45 0 80 35 80 90v375h260v-375c0 -200 -140 -340 -340 -340s-340 140 -340 340v375h260v-375c0 -55 35 -90 80 -90zM270 890c0 75 55 130 130 130s130 -55 130 -130s-55 -130 -130 -130s-130 55 -130 130zM360 890c0 -20 20 -40 40 -40s40 20 40 40
s-20 40 -40 40s-40 -20 -40 -40z" />
    <glyph glyph-name="uring" unicode="&#x16f;" horiz-adv-x="660" 
d="M230 -15c-100 0 -180 80 -180 265v280h240v-280c0 -40 20 -60 40 -60s40 20 40 60v280h240v-530h-230l-20 60s-40 -75 -130 -75zM200 720c0 75 55 130 130 130s130 -55 130 -130s-55 -130 -130 -130s-130 55 -130 130zM290 720c0 -20 20 -40 40 -40s40 20 40 40
s-20 40 -40 40s-40 -20 -40 -40z" />
    <glyph glyph-name="Uhungarumlaut" unicode="&#x170;" horiz-adv-x="800" 
d="M400 235c45 0 80 35 80 90v375h260v-375c0 -200 -140 -340 -340 -340s-340 140 -340 340v375h260v-375c0 -55 35 -90 80 -90zM230 770l90 210h160l-140 -210h-110zM440 770l90 210h160l-140 -210h-110z" />
    <glyph glyph-name="uhungarumlaut" unicode="&#x171;" horiz-adv-x="660" 
d="M230 -15c-100 0 -180 80 -180 265v280h240v-280c0 -40 20 -60 40 -60s40 20 40 60v280h240v-530h-230l-20 60s-40 -75 -130 -75zM170 600l90 210h160l-140 -210h-110zM380 600l90 210h160l-140 -210h-110z" />
    <glyph glyph-name="Uogonek" unicode="&#x172;" horiz-adv-x="800" 
d="M400 235c45 0 80 35 80 90v375h260v-375c0 -164 -100 -285 -240 -325c-20 -10 -95 -80 -95 -130c0 -10 10 -20 20 -20h60v-120h-100c-70 0 -120 50 -120 110c0 100 130 145 130 145c-197 2 -335 141 -335 340v375h260v-375c0 -55 35 -90 80 -90z" />
    <glyph glyph-name="uogonek" unicode="&#x173;" horiz-adv-x="660" 
d="M230 -15c-100 0 -180 80 -180 265v280h240v-280c0 -40 20 -60 40 -60s40 20 40 60v280h240v-530s-100 -80 -100 -130c0 -10 10 -20 20 -20h60v-120h-100c-70 0 -120 50 -120 110c0 110 170 160 170 160h-160l-20 60s-40 -75 -130 -75z" />
    <glyph glyph-name="Ydieresis" unicode="&#x178;" horiz-adv-x="700" 
d="M280 700l70 -200l70 200h300l-240 -430v-270h-260v270l-240 430h300zM550 860c0 -50 -40 -90 -90 -90s-90 40 -90 90s40 90 90 90s90 -40 90 -90zM330 860c0 -50 -40 -90 -90 -90s-90 40 -90 90s40 90 90 90s90 -40 90 -90z" />
    <glyph glyph-name="Zacute" unicode="&#x179;" horiz-adv-x="690" 
d="M630 480l-250 -260h260v-220h-590v4v216l250 260h-230v220h560v-220zM270 770l90 210h210l-140 -210h-160z" />
    <glyph glyph-name="zacute" unicode="&#x17a;" horiz-adv-x="560" 
d="M510 340l-180 -150h190v-190h-480v190l180 150h-170v190h460v-190zM200 600l90 210h210l-140 -210h-160z" />
    <glyph glyph-name="Zdotaccent" unicode="&#x17b;" horiz-adv-x="690" 
d="M630 480l-250 -260h260v-220h-590v4v216l250 260h-230v220h560v-220zM240 870c0 55 45 100 100 100s100 -45 100 -100s-45 -100 -100 -100s-100 45 -100 100z" />
    <glyph glyph-name="zdotaccent" unicode="&#x17c;" horiz-adv-x="560" 
d="M510 340l-180 -150h190v-190h-480v190l180 150h-170v190h460v-190zM180 700c0 55 45 100 100 100s100 -45 100 -100s-45 -100 -100 -100s-100 45 -100 100z" />
    <glyph glyph-name="Zcaron" unicode="&#x17d;" horiz-adv-x="690" 
d="M630 480l-250 -260h260v-220h-590v4v216l250 260h-230v220h560v-220zM550 940l-120 -170h-160l-120 170h150l50 -80l50 80h150z" />
    <glyph glyph-name="zcaron" unicode="&#x17e;" horiz-adv-x="560" 
d="M510 340l-180 -150h190v-190h-480v190l180 150h-170v190h460v-190zM480 770l-120 -170h-160l-120 170h150l50 -80l50 80h150z" />
    <glyph glyph-name="florin" unicode="&#x192;" horiz-adv-x="470" 
d="M110 -25v325h-70v200h70v15c0 175 90 265 240 265c50 0 90 -10 90 -10v-200s-20 5 -40 5c-30 0 -50 -20 -50 -60v-15h90v-200h-90v-325c0 -175 -90 -265 -240 -265c-50 0 -90 10 -90 10v200s20 -5 40 -5c30 0 50 20 50 60z" />
    <glyph glyph-name="Scommaaccent" unicode="&#x218;" horiz-adv-x="625" 
d="M275 190c25 0 40 15 40 30c0 50 -270 50 -270 270c0 115 110 225 285 225c180 0 270 -110 270 -110l-95 -150s-60 55 -130 55c-25 0 -40 -15 -40 -30c0 -50 270 -50 270 -270c0 -115 -110 -225 -285 -225c-220 0 -310 120 -310 120l95 150s70 -65 170 -65zM420 -80v-150
l-70 -150h-80l40 120h-80v180h190z" />
    <glyph glyph-name="scommaaccent" unicode="&#x219;" horiz-adv-x="515" 
d="M495 160c0 -95 -80 -175 -235 -175c-165 0 -250 95 -250 95l75 120s50 -50 125 -50c15 0 25 10 25 20c0 30 -195 40 -195 200c0 95 80 175 235 175c135 0 220 -85 220 -85l-75 -120s-40 40 -95 40c-15 0 -25 -10 -25 -20c0 -30 195 -40 195 -200zM355 -80v-150l-70 -150
h-80l40 120h-80v180h190z" />
    <glyph glyph-name="afii57929" unicode="&#x2bc;" horiz-adv-x="250" 
d="M220 700v-150l-70 -150h-80l40 120h-80v180h190z" />
    <glyph glyph-name="circumflex" unicode="&#x2c6;" horiz-adv-x="460" 
d="M310 700l120 -170h-150l-50 80l-50 -80h-150l120 170h160z" />
    <glyph glyph-name="caron" unicode="&#x2c7;" horiz-adv-x="460" 
d="M430 700l-120 -170h-160l-120 170h150l50 -80l50 80h150z" />
    <glyph glyph-name="breve" unicode="&#x2d8;" horiz-adv-x="440" 
d="M220 660c25 0 40 15 40 40h150c0 -115 -75 -190 -190 -190s-190 75 -190 190h150c0 -25 15 -40 40 -40z" />
    <glyph glyph-name="dotaccent" unicode="&#x2d9;" horiz-adv-x="260" 
d="M30 600c0 55 45 100 100 100s100 -45 100 -100s-45 -100 -100 -100s-100 45 -100 100z" />
    <glyph glyph-name="ring" unicode="&#x2da;" horiz-adv-x="320" 
d="M30 570c0 75 55 130 130 130s130 -55 130 -130s-55 -130 -130 -130s-130 55 -130 130zM120 570c0 -20 20 -40 40 -40s40 20 40 40s-20 40 -40 40s-40 -20 -40 -40z" />
    <glyph glyph-name="ogonek" unicode="&#x2db;" horiz-adv-x="300" 
d="M270 0c0 0 -100 -80 -100 -130c0 -10 10 -20 20 -20h60v-120h-100c-70 0 -120 50 -120 110c0 110 170 160 170 160h70z" />
    <glyph glyph-name="tilde" unicode="&#x2dc;" horiz-adv-x="380" 
d="M260 520c-60 0 -85 50 -110 50c-15 0 -30 -15 -30 -40h-90v70c0 60 40 100 90 100c60 0 85 -50 110 -50c15 0 30 15 30 40h90v-70c0 -60 -40 -100 -90 -100z" />
    <glyph glyph-name="hungarumlaut" unicode="&#x2dd;" horiz-adv-x="520" 
d="M30 490l90 210h160l-140 -210h-110zM240 490l90 210h160l-140 -210h-110z" />
    <glyph glyph-name="afii10023" unicode="&#x401;" horiz-adv-x="650" 
d="M320 250v-50h300v-200h-560v700h540v-200h-280v-50h260v-200h-260zM530 850c0 -50 -40 -90 -90 -90s-90 40 -90 90s40 90 90 90s90 -40 90 -90zM310 850c0 -50 -40 -90 -90 -90s-90 40 -90 90s40 90 90 90s90 -40 90 -90z" />
    <glyph glyph-name="afii10051" unicode="&#x402;" horiz-adv-x="800" 
d="M770 185c0 -145 -90 -235 -240 -235c-40 0 -80 10 -80 10v175h10c30 0 50 21 50 50c0 25 -20 45 -45 45s-45 -20 -45 -50v-180h-260v470h-160v230h580v-230h-160v-120s50 80 150 80c120 0 200 -80 200 -245z" />
    <glyph glyph-name="afii10052" unicode="&#x403;" horiz-adv-x="600" 
d="M320 470v-470h-260v700h530v-230h-270zM240 770l90 210h210l-140 -210h-160z" />
    <glyph glyph-name="afii10053" unicode="&#x404;" horiz-adv-x="710" 
d="M410 715c190 0 280 -110 280 -110l-110 -170s-60 55 -130 55c-90 0 -115 -60 -115 -60h165v-160h-165s25 -60 115 -60c70 0 130 55 130 55l110 -170s-90 -110 -280 -110c-210 0 -370 160 -370 365s160 365 370 365z" />
    <glyph glyph-name="afii10054" unicode="&#x405;" horiz-adv-x="625" 
d="M275 190c25 0 40 15 40 30c0 50 -270 50 -270 270c0 115 110 225 285 225c180 0 270 -110 270 -110l-95 -150s-60 55 -130 55c-25 0 -40 -15 -40 -30c0 -50 270 -50 270 -270c0 -115 -110 -225 -285 -225c-220 0 -310 120 -310 120l95 150s70 -65 170 -65z" />
    <glyph glyph-name="afii10055" unicode="&#x406;" horiz-adv-x="380" 
d="M320 700v-700h-260v700h260z" />
    <glyph glyph-name="afii10056" unicode="&#x407;" horiz-adv-x="380" 
d="M320 700v-700h-260v700h260zM390 860c0 -50 -40 -90 -90 -90s-90 40 -90 90s40 90 90 90s90 -40 90 -90zM170 860c0 -50 -40 -90 -90 -90s-90 40 -90 90s40 90 90 90s90 -40 90 -90z" />
    <glyph glyph-name="afii10057" unicode="&#x408;" horiz-adv-x="540" 
d="M220 310v390h260v-390c0 -210 -130 -340 -280 -340c-130 0 -200 60 -200 60l70 210s30 -20 70 -20c45 0 80 35 80 90z" />
    <glyph glyph-name="afii10058" unicode="&#x409;" horiz-adv-x="1130" 
d="M780 -10c-160 0 -300 10 -300 10v490h-90c0 -375 -130 -505 -290 -505c-50 0 -100 15 -100 15v190h20c70 0 130 60 130 510h590v-205s50 5 90 5c170 0 270 -100 270 -255s-100 -255 -320 -255zM780 310h-40v-130h40c35 0 60 25 60 65s-25 65 -60 65z" />
    <glyph glyph-name="afii10059" unicode="&#x40a;" horiz-adv-x="1130" 
d="M780 -10c-160 0 -300 10 -300 10v260h-160v-260h-260v700h260v-230h160v230h260v-225s50 5 90 5c170 0 270 -100 270 -245s-100 -245 -320 -245zM780 290h-40v-110h40c35 0 60 25 60 55s-25 55 -60 55z" />
    <glyph glyph-name="afii10060" unicode="&#x40b;" horiz-adv-x="810" 
d="M0 700h580v-230h-160v-120s50 80 150 80c120 0 200 -80 200 -250v-180h-260v180c0 30 -20 50 -45 50s-45 -20 -45 -50v-180h-260v470h-160v230z" />
    <glyph glyph-name="afii10061" unicode="&#x40c;" horiz-adv-x="750" 
d="M740 700l-190 -350l210 -350h-300l-140 280v-280h-260v700h260v-280l120 280h300zM300 770l90 210h210l-140 -210h-160z" />
    <glyph glyph-name="afii10062" unicode="&#x40e;" horiz-adv-x="710" 
d="M375 470l55 230h300l-215 -460c-80 -170 -165 -255 -290 -255c-100 0 -170 55 -170 55l60 190s40 -20 80 -20c30 0 40 30 40 30l-225 460h300zM370 920c25 0 40 15 40 40h150c0 -115 -75 -190 -190 -190s-190 75 -190 190h150c0 -25 15 -40 40 -40z" />
    <glyph glyph-name="afii10145" unicode="&#x40f;" horiz-adv-x="800" 
d="M740 700v-700h-210v-130h-260v130h-210v700h260v-480h160v480h260z" />
    <glyph glyph-name="afii10017" unicode="&#x410;" horiz-adv-x="770" 
d="M555 700c1 -4 205 -700 205 -700h-290l-20 100h-130l-20 -100h-290l205 700h340zM350 260h70l-35 180z" />
    <glyph glyph-name="afii10018" unicode="&#x411;" horiz-adv-x="720" 
d="M320 510v-65s50 5 110 5c170 0 270 -100 270 -230s-100 -230 -320 -230c-170 0 -320 10 -320 10v700h550v-190h-290zM380 270h-60v-100h60c35 0 60 25 60 50s-25 50 -60 50z" />
    <glyph glyph-name="afii10019" unicode="&#x412;" horiz-adv-x="730" 
d="M540 370v-5s160 -25 160 -175c0 -110 -90 -200 -340 -200c-160 0 -300 10 -300 10v700s140 10 295 10c225 0 315 -90 315 -195c0 -120 -130 -145 -130 -145zM320 530v-90h35c35 0 55 20 55 45s-20 45 -55 45h-35zM360 170c40 0 60 20 60 50s-20 50 -60 50h-40v-100h40z
" />
    <glyph glyph-name="afii10020" unicode="&#x413;" horiz-adv-x="600" 
d="M320 470v-470h-260v700h530v-230h-270z" />
    <glyph glyph-name="afii10021" unicode="&#x414;" horiz-adv-x="810" 
d="M720 210h80v-340h-260v130h-280v-130h-260v340h60s70 90 70 490h590v-490zM320 210h140v280h-100c0 -190 -40 -280 -40 -280z" />
    <glyph glyph-name="afii10022" unicode="&#x415;" horiz-adv-x="650" 
d="M320 250v-50h300v-200h-560v700h540v-200h-280v-50h260v-200h-260z" />
    <glyph glyph-name="afii10024" unicode="&#x416;" horiz-adv-x="1120" 
d="M1110 700l-190 -350l210 -350h-300l-140 280v-280h-260v280l-140 -280h-300l210 350l-190 350h300l120 -280v280h260v-280l120 280h300z" />
    <glyph glyph-name="afii10025" unicode="&#x417;" horiz-adv-x="635" 
d="M465 370v-5s140 -25 140 -175c0 -105 -100 -205 -285 -205c-220 0 -310 120 -310 120l95 150s70 -65 170 -65c30 0 50 20 50 40s-20 40 -49 40h-91v170h105c30 0 45 15 45 35s-15 35 -45 35c-85 0 -155 -55 -155 -55l-95 150s90 110 270 110c185 0 285 -100 285 -200
c0 -120 -130 -145 -130 -145z" />
    <glyph glyph-name="afii10026" unicode="&#x418;" horiz-adv-x="820" 
d="M320 360l160 340h280v-700h-260v340l-160 -340h-280v700h260v-340z" />
    <glyph glyph-name="afii10027" unicode="&#x419;" horiz-adv-x="820" 
d="M320 360l160 340h280v-700h-260v340l-160 -340h-280v700h260v-340zM410 920c30 0 50 20 50 50h150c0 -120 -80 -200 -200 -200s-200 80 -200 200h150c0 -30 20 -50 50 -50z" />
    <glyph glyph-name="afii10028" unicode="&#x41a;" horiz-adv-x="750" 
d="M740 700l-190 -350l210 -350h-300l-140 280v-280h-260v700h260v-280l120 280h300z" />
    <glyph glyph-name="afii10029" unicode="&#x41b;" horiz-adv-x="800" 
d="M740 700v-700h-260v490h-90c0 -375 -130 -505 -290 -505c-50 0 -100 15 -100 15v190h20c70 0 130 60 130 510h590z" />
    <glyph glyph-name="afii10030" unicode="&#x41c;" horiz-adv-x="1090" 
d="M650 0h-210l-120 390v-390h-260v700h370l115 -380l115 380h370v-700h-260v390z" />
    <glyph glyph-name="afii10031" unicode="&#x41d;" horiz-adv-x="800" 
d="M320 700v-240h160v240h260v-700h-260v240h-160v-240h-260v700h260z" />
    <glyph glyph-name="afii10032" unicode="&#x41e;" horiz-adv-x="860" 
d="M540 350c0 70 -50 120 -110 120s-110 -50 -110 -120s50 -120 110 -120s110 50 110 120zM820 350c0 -205 -160 -365 -390 -365s-390 160 -390 365s160 365 390 365s390 -160 390 -365z" />
    <glyph glyph-name="afii10033" unicode="&#x41f;" horiz-adv-x="800" 
d="M60 700h680v-700h-260v480h-160v-480h-260v700z" />
    <glyph glyph-name="afii10034" unicode="&#x420;" horiz-adv-x="710" 
d="M360 710c220 0 320 -100 320 -245s-100 -245 -270 -245c-40 0 -90 5 -90 5v-225h-260v700s140 10 300 10zM320 410h40c35 0 60 25 60 55s-25 55 -60 55h-40v-110z" />
    <glyph glyph-name="afii10035" unicode="&#x421;" horiz-adv-x="710" 
d="M40 350c0 205 160 365 370 365c190 0 280 -110 280 -110l-120 -190s-60 55 -130 55s-120 -50 -120 -120s50 -120 120 -120s130 55 130 55l120 -190s-90 -110 -280 -110c-210 0 -370 160 -370 365z" />
    <glyph glyph-name="afii10036" unicode="&#x422;" horiz-adv-x="680" 
d="M20 700h640v-230h-190v-470h-260v470h-190v230z" />
    <glyph glyph-name="afii10037" unicode="&#x423;" horiz-adv-x="710" 
d="M375 470l55 230h300l-215 -460c-80 -170 -165 -255 -290 -255c-100 0 -170 55 -170 55l60 190s40 -20 80 -20c30 0 40 30 40 30l-225 460h300z" />
    <glyph glyph-name="afii10038" unicode="&#x424;" horiz-adv-x="1000" 
d="M630 80v-80h-260v80c-230 0 -350 120 -350 270s120 270 350 270v80h260v-80c230 0 350 -120 350 -270s-120 -270 -350 -270zM370 250v200c-50 0 -90 -40 -90 -100s40 -100 90 -100zM630 450v-200c50 0 90 40 90 100s-40 100 -90 100z" />
    <glyph glyph-name="afii10039" unicode="&#x425;" horiz-adv-x="740" 
d="M190 350l-190 350h300l70 -190l70 190h300l-190 -350l200 -350h-300l-80 210l-80 -210h-300z" />
    <glyph glyph-name="afii10040" unicode="&#x426;" horiz-adv-x="820" 
d="M730 220h80v-350h-260v130h-490v700h260v-480h150v480h260v-480z" />
    <glyph glyph-name="afii10041" unicode="&#x427;" horiz-adv-x="760" 
d="M440 700h260v-700h-260v230s-60 -50 -150 -50c-150 0 -240 90 -240 280v240h260v-240c0 -40 30 -70 65 -70s65 30 65 70v240z" />
    <glyph glyph-name="afii10042" unicode="&#x428;" horiz-adv-x="1110" 
d="M1050 700v-700h-990v700h260v-480h105v480h260v-480h105v480h260z" />
    <glyph glyph-name="afii10043" unicode="&#x429;" horiz-adv-x="1140" 
d="M1050 220h80v-350h-260v130h-810v700h260v-480h105v480h260v-480h105v480h260v-480z" />
    <glyph glyph-name="afii10044" unicode="&#x42a;" horiz-adv-x="780" 
d="M430 -10c-160 0 -290 10 -290 10v470h-130v230h390v-205s40 5 80 5c170 0 270 -100 270 -255s-100 -255 -320 -255zM430 310h-30v-130h30c35 0 60 25 60 65s-25 65 -60 65z" />
    <glyph glyph-name="afii10045" unicode="&#x42b;" horiz-adv-x="1040" 
d="M350 -10c-160 0 -290 10 -290 10v700h260v-205s40 5 80 5c170 0 270 -100 270 -255s-100 -255 -320 -255zM350 310h-30v-130h30c35 0 60 25 60 65s-25 65 -60 65zM980 700v-700h-260v700h260z" />
    <glyph glyph-name="afii10046" unicode="&#x42c;" horiz-adv-x="710" 
d="M360 -10c-160 0 -300 10 -300 10v700h260v-205s50 5 90 5c170 0 270 -100 270 -255s-100 -255 -320 -255zM360 310h-40v-130h40c35 0 60 25 60 65s-25 65 -60 65z" />
    <glyph glyph-name="afii10047" unicode="&#x42d;" horiz-adv-x="710" 
d="M300 715c210 0 370 -160 370 -365s-160 -365 -370 -365c-190 0 -280 110 -280 110l110 170s60 -55 130 -55c90 0 115 60 115 60h-165v160h165s-25 60 -115 60c-70 0 -130 -55 -130 -55l-110 170s90 110 280 110z" />
    <glyph glyph-name="afii10048" unicode="&#x42e;" horiz-adv-x="1140" 
d="M740 715c210 0 360 -150 360 -365s-150 -365 -360 -365c-290 0 -345 255 -345 255h-75v-240h-260v700h260v-240h75s55 255 345 255zM740 230c40 0 80 40 80 120s-40 120 -80 120s-80 -40 -80 -120s40 -120 80 -120z" />
    <glyph glyph-name="afii10049" unicode="&#x42f;" horiz-adv-x="740" 
d="M290 0h-300l170 270s-90 50 -90 195s100 245 320 245c150 0 290 -10 290 -10v-700h-260v230h-10zM390 410h30v110h-30c-35 0 -60 -25 -60 -55s25 -55 60 -55z" />
    <glyph glyph-name="afii10065" unicode="&#x430;" horiz-adv-x="620" 
d="M285 545c170 0 295 -125 295 -280v-265h-230l-20 60s-40 -75 -130 -75c-110 0 -180 70 -180 165s70 165 240 165h80s-10 55 -90 55c-50 0 -90 -40 -90 -40l-85 135s75 80 210 80zM290 145c25 0 50 25 50 85c-55 0 -80 -25 -80 -55c0 -15 15 -30 30 -30z" />
    <glyph glyph-name="afii10066" unicode="&#x431;" horiz-adv-x="650" 
d="M380 560c-100 0 -150 -50 -150 -120c0 0 60 70 160 70c130 0 230 -100 230 -245c0 -155 -125 -280 -295 -280s-295 125 -295 345v40c0 235 125 360 350 360c25 0 40 15 40 40h190c0 -160 -50 -210 -230 -210zM380 265c0 50 -24 75 -55 75s-55 -25 -55 -75s24 -75 55 -75
s55 25 55 75z" />
    <glyph glyph-name="afii10067" unicode="&#x432;" horiz-adv-x="590" 
d="M465 275v-5s105 -25 105 -120c0 -80 -80 -160 -275 -160c-150 0 -245 10 -245 10v530s95 10 240 10c170 0 250 -80 250 -160s-75 -105 -75 -105zM280 140h15c20 0 35 15 35 30s-15 30 -35 30h-15v-60zM280 390v-60c25 0 40 15 40 30s-15 30 -40 30z" />
    <glyph glyph-name="afii10068" unicode="&#x433;" horiz-adv-x="510" 
d="M60 530h440v-210h-200v-320h-240v530z" />
    <glyph glyph-name="afii10069" unicode="&#x434;" horiz-adv-x="650" 
d="M570 190h70v-300h-240v110h-160v-110h-240v300h50s50 60 50 340h470v-340zM270 190h70v150h-40c0 -90 -30 -150 -30 -150z" />
    <glyph glyph-name="afii10070" unicode="&#x435;" horiz-adv-x="610" 
d="M310 545c155 0 280 -125 280 -280v-50h-320s10 -55 90 -55c50 0 90 40 90 40l85 -135s-75 -80 -210 -80c-170 0 -295 125 -295 280s125 280 280 280zM265 310h90c0 40 -20 60 -45 60s-45 -20 -45 -60z" />
    <glyph glyph-name="afii10072" unicode="&#x436;" horiz-adv-x="950" 
d="M940 530l-140 -260l160 -270h-265l-100 210v-210h-240v210l-100 -210h-265l160 270l-140 260h260l85 -200v200h240v-200l85 200h260z" />
    <glyph glyph-name="afii10073" unicode="&#x437;" horiz-adv-x="515" 
d="M395 275v-5s100 -25 100 -130c0 -75 -80 -155 -225 -155c-175 0 -260 95 -260 95l75 120s50 -50 110 -50c25 0 40 15 40 30s-15 30 -40 30h-60v110h70c25 0 40 15 40 30s-15 30 -40 30c-60 0 -100 -40 -100 -40l-75 120s85 85 230 85s225 -80 225 -155
c0 -90 -90 -115 -90 -115z" />
    <glyph glyph-name="afii10074" unicode="&#x438;" horiz-adv-x="680" 
d="M300 0h-250v530h240v-230l90 230h250v-530h-240v230z" />
    <glyph glyph-name="afii10075" unicode="&#x439;" horiz-adv-x="680" 
d="M300 0h-250v530h240v-230l90 230h250v-530h-240v230zM340 750c25 0 40 15 40 40h150c0 -115 -75 -190 -190 -190s-190 75 -190 190h150c0 -25 15 -40 40 -40z" />
    <glyph glyph-name="afii10076" unicode="&#x43a;" horiz-adv-x="645" 
d="M635 530l-140 -260l160 -270h-265l-100 210v-210h-240v530h240v-200l85 200h260z" />
    <glyph glyph-name="afii10077" unicode="&#x43b;" horiz-adv-x="640" 
d="M100 530h490v0v-530h-240v330h-40c0 -255 -90 -345 -220 -345c-40 0 -90 15 -90 15v170h20c50 0 80 30 80 360z" />
    <glyph glyph-name="afii10078" unicode="&#x43c;" horiz-adv-x="920" 
d="M540 0h-160l-90 290v-290h-240v530h330l80 -260l80 260h330v-530h-240v290z" />
    <glyph glyph-name="afii10079" unicode="&#x43d;" horiz-adv-x="660" 
d="M370 360v170h240v-530h-240v170h-80v-170h-240v530h240v-170h80z" />
    <glyph glyph-name="afii10080" unicode="&#x43e;" 
d="M30 265c0 155 125 280 305 280s305 -125 305 -280s-125 -280 -305 -280s-305 125 -305 280zM400 265c0 45 -30 75 -65 75s-65 -30 -65 -75s30 -75 65 -75s65 30 65 75z" />
    <glyph glyph-name="afii10081" unicode="&#x43f;" horiz-adv-x="660" 
d="M50 530h560v-530h-240v330h-80v-330h-240v530z" />
    <glyph glyph-name="afii10082" unicode="&#x440;" 
d="M640 265c0 -180 -100 -280 -210 -280c-100 0 -140 75 -140 75v-310h-240v780h220l20 -60s40 75 140 75c110 0 210 -100 210 -280zM390 265c0 50 -25 75 -55 75s-55 -25 -55 -75s25 -75 55 -75s55 25 55 75z" />
    <glyph glyph-name="afii10083" unicode="&#x441;" horiz-adv-x="560" 
d="M280 265c0 -45 30 -75 80 -75s90 40 90 40l100 -160s-80 -85 -225 -85c-170 0 -295 125 -295 280s125 280 295 280c145 0 225 -85 225 -85l-100 -160s-40 40 -90 40s-80 -30 -80 -75z" />
    <glyph glyph-name="afii10084" unicode="&#x442;" horiz-adv-x="520" 
d="M10 530h500v-210h-130v-320h-240v320h-130v210z" />
    <glyph glyph-name="afii10085" unicode="&#x443;" horiz-adv-x="590" 
d="M160 -40l15 40l-175 530h250l45 -280l45 280h250l-190 -570c-60 -180 -130 -250 -255 -250c-70 0 -130 40 -130 40l55 175s15 -10 35 -10c25 0 46 20 55 45z" />
    <glyph glyph-name="afii10086" unicode="&#x444;" horiz-adv-x="1000" 
d="M720 265c0 50 -25 75 -55 75s-55 -25 -55 -75s25 -75 55 -75s55 25 55 75zM380 740h240v-270s40 75 140 75c110 0 210 -100 210 -280s-100 -280 -210 -280c-100 0 -140 75 -140 75v-310h-240v310s-40 -75 -140 -75c-110 0 -210 100 -210 280s100 280 210 280
c100 0 140 -75 140 -75v270zM280 265c0 -50 25 -75 55 -75s55 25 55 75s-25 75 -55 75s-55 -25 -55 -75z" />
    <glyph glyph-name="afii10087" unicode="&#x445;" horiz-adv-x="600" 
d="M595 530l-135 -265l150 -265h-270l-40 130l-40 -130h-270l150 265l-135 265h255l40 -130l40 130h255z" />
    <glyph glyph-name="afii10088" unicode="&#x446;" horiz-adv-x="690" 
d="M610 530v-330h70v-310h-240v110h-390v530h240v-330h80v330h240z" />
    <glyph glyph-name="afii10089" unicode="&#x447;" horiz-adv-x="630" 
d="M340 370v160h240v-530h-240v150s-40 -25 -105 -25c-115 0 -195 80 -195 245v160h240v-160c0 -25 15 -40 30 -40s30 15 30 40z" />
    <glyph glyph-name="afii10090" unicode="&#x448;" horiz-adv-x="940" 
d="M290 530v-330h60v330h1h239v-330h60v330h240v-530h-840v530h240z" />
    <glyph glyph-name="afii10091" unicode="&#x449;" horiz-adv-x="970" 
d="M650 200v330h240v-330h70v-310h-240v110h-670v530h240v-330h60v330h240v-330h60z" />
    <glyph glyph-name="afii10092" unicode="&#x44a;" horiz-adv-x="645" 
d="M10 530h350v-145s30 5 50 5c125 0 215 -90 215 -200s-90 -200 -265 -200c-145 0 -240 10 -240 10v320h-110v210zM350 230v-80c30 0 45 15 45 40s-15 40 -45 40z" />
    <glyph glyph-name="afii10093" unicode="&#x44b;" horiz-adv-x="875" 
d="M340 390c125 0 215 -90 215 -200s-90 -200 -265 -200c-145 0 -240 10 -240 10v530h240v-145s30 5 50 5zM280 230v-80v0c30 0 45 15 45 40s-15 40 -45 40zM825 530v-530h-240v530h240z" />
    <glyph glyph-name="afii10094" unicode="&#x44c;" horiz-adv-x="580" 
d="M345 390c125 0 215 -90 215 -200s-90 -200 -265 -200c-150 0 -245 10 -245 10v530h240v-145s30 5 55 5zM295 230h-15v-80h15c20 0 35 15 35 40s-15 40 -35 40z" />
    <glyph glyph-name="afii10095" unicode="&#x44d;" horiz-adv-x="560" 
d="M235 545c170 0 295 -125 295 -280s-125 -280 -295 -280c-145 0 -225 85 -225 85l80 130s50 -45 105 -45c70 0 90 50 90 50h-130v120h130s-20 50 -90 50c-55 0 -105 -45 -105 -45l-80 130s80 85 225 85z" />
    <glyph glyph-name="afii10096" unicode="&#x44e;" horiz-adv-x="930" 
d="M610 -15c-215 0 -275 185 -275 185h-45v-170h-240v530h240v-170h45s60 185 275 185c170 0 290 -120 290 -280s-120 -280 -290 -280zM610 340c-25 0 -50 -25 -50 -75s25 -75 50 -75s50 25 50 75s-25 75 -50 75z" />
    <glyph glyph-name="afii10097" unicode="&#x44f;" horiz-adv-x="630" 
d="M340 170h-5l-80 -170h-265l130 220s-70 45 -70 135c0 95 90 185 275 185c150 0 255 -10 255 -10v-530h-240v170zM325 310h25v70h-25c-20 0 -35 -15 -35 -35s15 -35 35 -35z" />
    <glyph glyph-name="afii10071" unicode="&#x451;" horiz-adv-x="610" 
d="M310 545c155 0 280 -125 280 -280v-50h-320s10 -55 90 -55c50 0 90 40 90 40l85 -135s-75 -80 -210 -80c-170 0 -295 125 -295 280s125 280 280 280zM265 310h90c0 40 -20 60 -45 60s-45 -20 -45 -60zM510 680c0 -50 -40 -90 -90 -90s-90 40 -90 90s40 90 90 90
s90 -40 90 -90zM290 680c0 -50 -40 -90 -90 -90s-90 40 -90 90s40 90 90 90s90 -40 90 -90z" />
    <glyph glyph-name="afii10099" unicode="&#x452;" horiz-adv-x="660" 
d="M390 155v75c0 40 -20 60 -40 60s-40 -20 -40 -60v-230h-240v530h-70v130h70v80h240v-80h100v-130h-100v-120s50 85 140 85c100 0 180 -80 180 -265v-75c0 -165 -90 -255 -230 -255c-40 0 -70 10 -70 10v200s10 -5 20 -5c20 0 40 20 40 50z" />
    <glyph glyph-name="afii10100" unicode="&#x453;" horiz-adv-x="500" 
d="M50 530h440v-210h-200v-320h-240v530zM180 600l90 210h210l-140 -210h-160z" />
    <glyph glyph-name="afii10101" unicode="&#x454;" horiz-adv-x="560" 
d="M325 545c145 0 225 -85 225 -85l-80 -130s-50 45 -105 45c-70 0 -90 -50 -90 -50h130v-120h-130s20 -50 90 -50c55 0 105 45 105 45l80 -130s-80 -85 -225 -85c-170 0 -295 125 -295 280s125 280 295 280z" />
    <glyph glyph-name="afii10102" unicode="&#x455;" horiz-adv-x="515" 
d="M495 160c0 -95 -80 -175 -235 -175c-165 0 -250 95 -250 95l75 120s50 -50 125 -50c15 0 25 10 25 20c0 30 -195 40 -195 200c0 95 80 175 235 175c135 0 220 -85 220 -85l-75 -120s-40 40 -95 40c-15 0 -25 -10 -25 -20c0 -30 195 -40 195 -200z" />
    <glyph glyph-name="afii10103" unicode="&#x456;" horiz-adv-x="340" 
d="M50 530h240v-530h-240v530zM50 590v190h240v-190h-240z" />
    <glyph glyph-name="afii10104" unicode="&#x457;" horiz-adv-x="340" 
d="M45 530h240v-530h-240v530zM370 690c0 -50 -40 -90 -90 -90s-90 40 -90 90s40 90 90 90s90 -40 90 -90zM150 690c0 -50 -40 -90 -90 -90s-90 40 -90 90s40 90 90 90s90 -40 90 -90z" />
    <glyph glyph-name="afii10105" unicode="&#x458;" horiz-adv-x="340" 
d="M50 590v190h240v-190h-240zM50 -25v555h240v-555c0 -175 -90 -265 -240 -265c-50 0 -90 10 -90 10v200s20 -5 40 -5c30 0 50 20 50 60z" />
    <glyph glyph-name="afii10106" unicode="&#x459;" horiz-adv-x="880" 
d="M645 390c125 0 215 -90 215 -200s-90 -200 -265 -200c-150 0 -245 10 -245 10v330h-40c0 -255 -90 -345 -220 -345c-40 0 -90 15 -90 15v170h20c50 0 80 30 80 360h490v-145s30 5 55 5zM595 230h-15v-80h15c20 0 35 15 35 40s-15 40 -35 40z" />
    <glyph glyph-name="afii10107" unicode="&#x45a;" horiz-adv-x="900" 
d="M370 360v170h240v-165s30 5 55 5c125 0 215 -90 215 -190s-90 -190 -265 -190c-150 0 -245 10 -245 10v190h-80v-190h-240v530h240v-170h80zM615 210h-15v-60h15c20 0 35 15 35 30s-15 30 -35 30z" />
    <glyph glyph-name="afii10108" unicode="&#x45b;" 
d="M0 530v130h70v80h240v-80h100v-130h-100v-120s50 85 140 85c100 0 180 -80 180 -265v-230h-240v230c0 40 -20 60 -40 60s-40 -20 -40 -60v-230h-240v530h-70z" />
    <glyph glyph-name="afii10109" unicode="&#x45c;" horiz-adv-x="645" 
d="M635 530l-140 -260l160 -270h-265l-100 210v-210h-240v530h240v-200l85 200h260zM250 600l90 210h210l-140 -210h-160z" />
    <glyph glyph-name="afii10110" unicode="&#x45e;" horiz-adv-x="590" 
d="M160 -40l15 40l-175 530h250l45 -280l45 280h250l-190 -570c-60 -180 -130 -250 -255 -250c-70 0 -130 40 -130 40l55 175s15 -10 35 -10c25 0 46 20 55 45zM290 750c25 0 40 15 40 40h150c0 -115 -75 -190 -190 -190s-190 75 -190 190h150c0 -25 15 -40 40 -40z" />
    <glyph glyph-name="afii10193" unicode="&#x45f;" horiz-adv-x="660" 
d="M50 0v530h240v-330h80v330h240v-530h-160v-110h-240v110h-160z" />
    <glyph glyph-name="afii10050" unicode="&#x490;" horiz-adv-x="590" 
d="M590 790v-320h-270v-470h-260v700h270v90h260z" />
    <glyph glyph-name="afii10098" unicode="&#x491;" horiz-adv-x="490" 
d="M250 610h240v-290h-200v-320h-240v530h200v80z" />
    <glyph glyph-name="uni1E9E" unicode="&#x1e9e;" horiz-adv-x="755" 
d="M465 225c0 30 -25 55 -65 55h-35v130l90 80h-95c-25 0 -50 -25 -50 -60v-430h-260v420c0 170 110 280 310 280h295v-210l-100 -90s170 -40 170 -195c0 -135 -90 -225 -260 -225c-55 0 -105 10 -105 10v175h40c40 0 65 25 65 60z" />
    <glyph glyph-name="endash" unicode="&#x2013;" horiz-adv-x="780" 
d="M30 210v170h720v-170h-720z" />
    <glyph glyph-name="emdash" unicode="&#x2014;" horiz-adv-x="1030" 
d="M30 210v170h970v-170h-970z" />
    <glyph glyph-name="quoteleft" unicode="&#x2018;" horiz-adv-x="320" 
d="M230 400h-210l120 300h160z" />
    <glyph glyph-name="quoteright" unicode="&#x2019;" horiz-adv-x="320" 
d="M90 700h210l-120 -300h-160z" />
    <glyph glyph-name="quotesinglbase" unicode="&#x201a;" horiz-adv-x="300" 
d="M70 200h210l-120 -300h-160z" />
    <glyph glyph-name="quotedblleft" unicode="&#x201c;" horiz-adv-x="550" 
d="M460 400h-200l120 300h150zM220 400h-200l120 300h150z" />
    <glyph glyph-name="quotedblright" unicode="&#x201d;" horiz-adv-x="550" 
d="M90 700h200l-120 -300h-150zM330 700h200l-120 -300h-150z" />
    <glyph glyph-name="quotedblbase" unicode="&#x201e;" horiz-adv-x="530" 
d="M70 200h200l-120 -300h-150zM310 200h200l-120 -300h-150z" />
    <glyph glyph-name="dagger" unicode="&#x2020;" horiz-adv-x="600" 
d="M40 340v190h160v210h200v-210h160v-190h-160v-590h-200v590h-160z" />
    <glyph glyph-name="daggerdbl" unicode="&#x2021;" horiz-adv-x="600" 
d="M40 -40v190h160v190h-160v190h160v210h200v-210h160v-190h-160v-190h160v-190h-160v-210h-200v210h-160z" />
    <glyph glyph-name="bullet" unicode="&#x2022;" horiz-adv-x="440" 
d="M80 310c0 80 60 140 140 140s140 -60 140 -140s-60 -140 -140 -140s-140 60 -140 140z" />
    <glyph glyph-name="ellipsis" unicode="&#x2026;" horiz-adv-x="850" 
d="M600 200h210v-200h-210v200zM320 200h210v-200h-210v200zM40 200h210v-200h-210v200z" />
    <glyph glyph-name="perthousand" unicode="&#x2030;" horiz-adv-x="1120" 
d="M260 0h-200l470 700h200zM180 600c-20 0 -40 -20 -40 -50s20 -50 40 -50s40 20 40 50s-20 50 -40 50zM180 390c-90 0 -160 70 -160 160s70 160 160 160s160 -70 160 -160s-70 -160 -160 -160zM600 200c-20 0 -40 -20 -40 -50s20 -50 40 -50s40 20 40 50s-20 50 -40 50z
M600 -10c-90 0 -160 70 -160 160s70 160 160 160s160 -70 160 -160s-70 -160 -160 -160zM940 200c-20 0 -40 -20 -40 -50s20 -50 40 -50s40 20 40 50s-20 50 -40 50zM940 -10c-90 0 -160 70 -160 160s70 160 160 160s160 -70 160 -160s-70 -160 -160 -160z" />
    <glyph glyph-name="guilsinglleft" unicode="&#x2039;" horiz-adv-x="340" 
d="M150 40l-110 230l110 230h150l-110 -230l110 -230h-150z" />
    <glyph glyph-name="guilsinglright" unicode="&#x203a;" horiz-adv-x="340" 
d="M300 270l-110 -230h-150l110 230l-110 230h150z" />
    <glyph glyph-name="fraction" unicode="&#x2044;" horiz-adv-x="390" 
d="M350 700l-200 -700h-110l200 700h110z" />
    <glyph glyph-name="foursuperior" unicode="&#x2074;" horiz-adv-x="520" 
d="M500 420v-140h-50v-80h-180v80h-240v140l170 280h250v-280h50zM270 420v130l-70 -130h70z" />
    <glyph glyph-name="Euro" unicode="&#x20ac;" horiz-adv-x="750" 
d="M80 370h-80v50h90s50 295 360 295c190 0 280 -110 280 -110l-110 -175s-60 55 -140 55s-120 -65 -120 -65h160v-50h-175v-40h175v-50h-160s40 -65 120 -65s140 55 140 55l110 -175s-90 -110 -280 -110c-310 0 -360 295 -360 295h-90v50h80v40z" />
    <glyph glyph-name="uni20B4" unicode="&#x20b4;" horiz-adv-x="690" 
d="M650 330v-50h-240s-50 -20 -50 -50c0 -25 15 -40 40 -40c70 0 130 55 130 55l95 -150s-90 -110 -270 -110c-175 0 -285 110 -285 215c0 40 20 80 20 80h-50v50h610zM40 370v50h240s50 20 50 50c0 25 -15 40 -40 40c-70 0 -130 -55 -130 -55l-95 150s90 110 270 110
c175 0 285 -110 285 -215c0 -40 -20 -80 -20 -80h50v-50h-610z" />
    <glyph glyph-name="uni20BD" unicode="&#x20bd;" horiz-adv-x="750" 
d="M40 120v130h70v40h-70v129h70v281s140 10 300 10c220 0 310 -90 310 -215c0 -115 -90 -205 -260 -205h-90v-40h210v-130h-210v-120h-260v120h-70zM370 430h40c30 0 50 20 50 45s-20 45 -50 45h-40v-90z" />
    <glyph glyph-name="afii61352" unicode="&#x2116;" horiz-adv-x="1290" 
d="M1250 170v-170h-400v170h400zM490 0l-170 310v-310h-260v700h290l170 -310v310h260v-700h-290zM990 430c0 -40 30 -70 60 -70s60 30 60 70s-30 70 -60 70s-60 -30 -60 -70zM830 430c0 120 90 210 220 210s220 -90 220 -210s-90 -210 -220 -210s-220 90 -220 210z" />
    <glyph glyph-name="trademark" unicode="&#x2122;" horiz-adv-x="835" 
d="M20 700h290v-110h-80v-180h-130v180h-80v110zM615 410h-100l-50 160v-160h-130v290h180l50 -160l50 160h180v-290h-130v160z" />
    <glyph glyph-name="minus" unicode="&#x2212;" horiz-adv-x="490" 
d="M30 230v190h430v-190h-430z" />
    <glyph glyph-name="commaaccent" unicode="&#xf6c3;" horiz-adv-x="250" 
d="M220 -90v-150l-70 -150h-80l40 120h-80v180h190z" />
    <glyph glyph-name="cyrBreve" unicode="&#xf6d1;" horiz-adv-x="460" 
d="M230 920c30 0 50 20 50 50h150c0 -120 -80 -200 -200 -200s-200 80 -200 200h150c0 -30 20 -50 50 -50z" />
    <glyph glyph-name="cyrbreve" unicode="&#xf6d4;" horiz-adv-x="440" 
d="M220 750c25 0 40 15 40 40h150c0 -115 -75 -190 -190 -190s-190 75 -190 190h150c0 -25 15 -40 40 -40z" />
    <glyph glyph-name="Germandbls" horiz-adv-x="755" 
d="M465 225c0 30 -25 55 -65 55h-35v130l90 80h-95c-25 0 -50 -25 -50 -60v-430h-260v420c0 170 110 280 310 280h295v-210l-100 -90s170 -40 170 -195c0 -135 -90 -225 -260 -225c-55 0 -105 10 -105 10v175h40c40 0 65 25 65 60z" />
    <glyph glyph-name="foundryicon" horiz-adv-x="1230" 
d="M100 -110v920h1030v-920h-1030zM1110 -90v880h-990v-880h990zM635 610h110c50 0 80 -30 80 -65s-30 -65 -80 -65h-55v-80h-55v210zM635 300h110c50 0 80 -30 80 -65s-30 -65 -80 -65h-55v-80h-55v210zM495 170l-75 130h60l40 -75h5l40 75h65l-80 -130v-80h-55v80z
M495 480l-75 130h60l40 -75h5l40 75h65l-80 -130v-80h-55v80zM300 255h-65v45h165l25 -45h-70v-165h-55v165zM300 565h-65v45h165l25 -45h-70v-165h-55v165zM790 400v65c25 5 55 30 60 60h80v-45h-85v-35h120v-45h-175zM790 90v65c25 5 55 30 60 60h80v-45h-85v-35h120v-45
h-175zM810 300h155v-45h-115c-5 20 -20 40 -40 45zM810 610h155v-45h-115c-5 20 -20 40 -40 45zM765 545c0 10 -10 20 -20 20h-55v-40h55c10 0 20 9 20 20zM765 235c0 10 -10 20 -20 20h-55v-40h55c10 0 20 9 20 20z" />
    </font>
</defs>
</svg>
